<?xml version="1.0" standalone="no"?>
<!DOCTYPE svg PUBLIC "-//W3C//DTD SVG 20010904//EN"
 "http://www.w3.org/TR/2001/REC-SVG-20010904/DTD/svg10.dtd">
<svg version="1.0" xmlns="http://www.w3.org/2000/svg"
 width="270.000000pt" height="270.000000pt" viewBox="0 0 270.000000 270.000000"
 preserveAspectRatio="xMidYMid meet">
<metadata>
Created by potrace 1.14, written by Peter Selinger 2001-2017
</metadata>
<g transform="translate(0.000000,270.000000) scale(0.100000,-0.100000)"
fill="#000000" stroke="none">
<path d="M1257 2630 c-96 -24 -192 -106 -236 -200 l-26 -55 -2 -1011 c-3 -918
-1 -1015 14 -1060 76 -227 352 -319 544 -182 60 43 93 83 127 155 l27 58 0
1010 -1 1010 -23 57 c-51 130 -176 218 -316 224 -38 2 -87 -1 -108 -6z m180
-55 c98 -29 180 -114 206 -213 9 -38 12 -275 12 -1033 l0 -984 -28 -57 c-103
-211 -390 -241 -526 -56 -64 87 -62 34 -59 1134 l3 999 23 46 c68 139 222 208
369 164z"/>
<path d="M1198 2373 c-2 -5 -4 -105 -3 -223 l0 -215 95 -3 c106 -3 147 11 184
61 19 25 21 43 21 162 0 119 -2 137 -21 162 -35 48 -78 63 -181 63 -50 0 -93
-3 -95 -7z m203 -82 c22 -18 24 -25 23 -136 0 -111 -1 -118 -23 -136 -16 -13
-39 -19 -77 -19 l-54 0 0 155 0 155 54 0 c38 0 61 -6 77 -19z"/>
<path d="M1286 1543 c-8 -26 -96 -354 -101 -376 -2 -10 -7 -27 -10 -38 -6 -17
-1 -19 34 -19 29 0 41 5 44 18 3 9 10 37 17 62 l11 45 65 0 64 0 10 -35 c5
-19 12 -47 16 -62 5 -25 11 -28 46 -28 34 0 39 3 33 18 -7 19 -94 349 -104
397 -6 29 -9 30 -63 33 -47 2 -57 0 -62 -15z m84 -138 c27 -104 27 -102 -22
-98 -23 2 -43 5 -45 7 -2 2 6 42 18 90 12 48 23 85 25 83 2 -2 13 -39 24 -82z"/>
<path d="M1268 726 c-65 -33 -78 -68 -78 -211 0 -94 4 -127 18 -155 32 -64
126 -95 199 -65 75 31 93 75 93 221 0 124 -16 174 -65 204 -49 30 -116 33
-167 6z m122 -56 c28 -15 37 -57 35 -174 -2 -100 -3 -111 -24 -128 -35 -27
-95 -24 -119 7 -18 22 -20 39 -18 146 1 114 3 122 25 140 25 21 72 25 101 9z"/>
<path d="M379 2378 c-1 -2 -2 -103 -3 -225 l-1 -223 143 0 143 0 -3 33 -3 32
-70 2 c-38 1 -85 2 -102 2 l-33 1 0 60 0 59 78 3 77 3 3 33 3 32 -80 0 -81 0
0 60 0 60 106 0 105 0 -3 33 -3 32 -137 3 c-76 1 -139 1 -139 0z"/>
<path d="M2034 2197 c1 -199 5 -217 63 -254 38 -25 134 -23 170 3 55 41 63 72
63 262 l0 173 -37 -3 -38 -3 -1 -150 c-2 -201 -2 -201 -20 -219 -22 -23 -87
-21 -109 4 -16 17 -18 41 -18 195 l0 175 -37 0 -37 0 1 -183z"/>
<path d="M455 1559 c-79 -24 -99 -64 -102 -213 -3 -107 -1 -126 19 -165 27
-55 79 -81 151 -76 79 6 124 47 134 125 l6 40 -36 0 c-32 0 -35 -3 -41 -35 -4
-19 -17 -41 -29 -50 -30 -21 -83 -19 -107 5 -21 21 -22 26 -22 140 0 121 1
129 24 150 46 42 122 17 134 -45 6 -32 9 -35 41 -35 l36 0 -6 40 c-7 51 -29
85 -66 105 -37 19 -98 25 -136 14z"/>
<path d="M2019 1558 c-1 -2 -2 -18 -4 -35 l-2 -33 62 0 c42 0 64 -4 67 -12 2
-7 3 -93 2 -190 l-1 -178 39 0 38 0 0 190 0 190 64 0 64 0 -1 33 -2 32 -162 3
c-90 1 -164 1 -164 0z"/>
<path d="M367 733 c-3 -7 -3 -15 1 -50 1 -9 19 -13 52 -13 l50 0 0 -155 0
-155 -49 0 c-43 0 -49 -3 -53 -23 -9 -45 -4 -47 143 -47 l139 0 0 34 0 35 -52
3 -53 3 0 153 -1 152 53 0 53 0 0 35 0 35 -139 0 c-77 0 -142 -3 -144 -7z"/>
<path d="M2039 733 c-4 -23 -4 -420 -1 -430 2 -7 19 -13 37 -13 l32 0 -1 165
c0 91 1 165 4 165 3 0 30 -74 59 -165 l53 -165 52 0 53 0 0 225 -1 226 -35 -3
-36 -3 0 -162 c0 -90 -3 -159 -6 -155 -4 4 -30 78 -59 165 l-51 157 -50 0
c-27 0 -50 -3 -50 -7z"/>
</g>
</svg>
