<svg width="25" height="19" viewBox="0 0 25 19" fill="none" xmlns="http://www.w3.org/2000/svg">
<path d="M20.4973 2.46059C18.9205 1.74621 17.2558 1.23941 15.5459 0.953125C15.3119 1.36705 15.1002 1.79292 14.9116 2.22896C13.0902 1.95736 11.238 1.95736 9.4166 2.22896C9.22794 1.79297 9.01623 1.3671 8.78234 0.953125C7.07132 1.24183 5.40559 1.74983 3.82718 2.46433C0.693636 7.05212 -0.155819 11.526 0.268909 15.9363C2.10399 17.278 4.15797 18.2984 6.34157 18.9531C6.83325 18.2987 7.26833 17.6045 7.64218 16.8778C6.9321 16.6153 6.24675 16.2915 5.59405 15.9101C5.76583 15.7868 5.93383 15.6598 6.09617 15.5365C7.99536 16.4204 10.0682 16.8786 12.167 16.8786C14.2657 16.8786 16.3385 16.4204 18.2377 15.5365C18.402 15.6692 18.57 15.7962 18.7398 15.9101C18.0859 16.2921 17.3993 16.6165 16.6879 16.8796C17.0613 17.606 17.4964 18.2996 17.9886 18.9531C20.174 18.301 22.2296 17.2811 24.065 15.9382C24.5633 10.8236 23.2136 6.39085 20.4973 2.46059ZM8.18017 13.224C6.9966 13.224 6.01878 12.1611 6.01878 10.8535C6.01878 9.54589 6.96262 8.47366 8.1764 8.47366C9.39017 8.47366 10.3604 9.54589 10.3397 10.8535C10.3189 12.1611 9.3864 13.224 8.18017 13.224ZM16.1537 13.224C14.9683 13.224 13.9942 12.1611 13.9942 10.8535C13.9942 9.54589 14.9381 8.47366 16.1537 8.47366C17.3694 8.47366 18.3321 9.54589 18.3113 10.8535C18.2906 12.1611 17.36 13.224 16.1537 13.224Z" fill="#F1F1F1"/>
</svg>
