<svg width="25" height="25" viewBox="0 0 25 25" fill="none" xmlns="http://www.w3.org/2000/svg">
<g clip-path="url(#clip0_9871_4589)">
<path d="M24.167 7.26213C23.284 7.65413 22.335 7.91812 21.339 8.03712C22.356 7.42812 23.137 6.46313 23.504 5.31313C22.553 5.87713 21.499 6.28713 20.377 6.50813C19.48 5.55113 18.199 4.95312 16.783 4.95312C13.604 4.95312 11.268 7.91913 11.986 10.9981C7.89499 10.7931 4.26699 8.83313 1.83799 5.85413C0.547992 8.06713 1.16899 10.9621 3.36099 12.4281C2.55499 12.4021 1.79499 12.1811 1.13199 11.8121C1.07799 14.0931 2.71299 16.2271 5.08099 16.7021C4.38799 16.8901 3.62899 16.9341 2.85699 16.7861C3.48299 18.7421 5.30099 20.1651 7.45699 20.2051C5.38699 21.8281 2.77899 22.5531 0.166992 22.2451C2.34599 23.6421 4.93499 24.4571 7.71499 24.4571C16.857 24.4571 22.022 16.7361 21.71 9.81112C22.672 9.11612 23.507 8.24913 24.167 7.26213Z" fill="#F1F1F1"/>
</g>
<defs>
<clipPath id="clip0_9871_4589">
<rect width="24" height="24" fill="white" transform="translate(0.166992 0.953125)"/>
</clipPath>
</defs>
</svg>
