<svg xmlns="http://www.w3.org/2000/svg" viewBox="0 0 220.57121 59.072"><defs><style>.a{fill:#dcdcdc;}.b{fill:#d25a59;}.c{fill:#e9ac65;}.d{fill:#826fd8;}.e{fill:#eee;}</style></defs><path class="a" d="M203.92976,233.26223v-4.012h-13.865v20.65h13.865v-4.012h-9.6465v-4.4545h8.85v-4.012h-8.85v-4.1595Zm15.1625-6.077v8.7615a6.095,6.095,0,0,0-5.133-2.6255c-4.1595,0-7.375,3.4515-7.375,8.4665,0,4.9855,3.186,8.4665,7.4045,8.4665a6.08459,6.08459,0,0,0,5.1035-2.537v2.183h4.2185v-22.715Zm-4.1595,19.057a4.46978,4.46978,0,0,1,0-8.909,4.465,4.465,0,0,1,0,8.909Zm22.3841-12.567v8.5255c0,2.655-1.2685,4.0415-3.599,4.0415-2.183,0-2.9795-1.18-2.9795-3.304v-9.263h-4.2185v10.1775c0,3.953,2.2125,6.4015,5.782,6.4015a5.8002,5.8002,0,0,0,5.015-2.596v2.242h4.2185v-16.225Zm15.611,16.579c3.894,0,7.4635-2.2715,8.1125-6.549h-4.3365a3.69241,3.69241,0,0,1-3.776,2.655c-2.478,0-4.189-1.8585-4.1595-4.5725-.0295-2.6845,1.6225-4.5725,4.189-4.5725a3.65642,3.65642,0,0,1,3.7465,2.6255h4.3365c-.6195-4.13-4.13-6.5195-8.083-6.5195a8.46653,8.46653,0,0,0-.0295,16.933Zm22.9118-16.579v2.2715a6.095,6.095,0,0,0-5.133-2.6255c-4.1595,0-7.375,3.4515-7.375,8.4665,0,4.9855,3.1565,8.4665,7.4045,8.4665a6.02951,6.02951,0,0,0,5.074-2.537v2.183h4.21851l.02949-16.225Zm-4.1595,12.567a4.46978,4.46978,0,0,1,0-8.909,4.465,4.465,0,0,1,0,8.909Zm23.8056-.708a10.83451,10.83451,0,0,1-3.392.7965c-1.682,0-2.5965-1.003-2.5965-2.9205v-5.7525h6.0185v-3.9825h-6.0185v-4.425l-4.2185.9145v3.5105h-2.891v3.9825h2.891v5.9885c0,4.661,2.832,6.608,6.077,6.608a9.89219,9.89219,0,0,0,4.838-1.298Zm5.586-19.352a2.49613,2.49613,0,1,0,2.626,2.478A2.45881,2.45881,0,0,0,301.07176,226.18223Zm-2.124,23.718h4.219v-16.225h-4.219Zm15.659-16.579a8.4665,8.4665,0,1,0,8.467,8.4665A8.313,8.313,0,0,0,314.60675,233.32123Zm0,4.012a4.46291,4.46291,0,1,1-4.189,4.4545A4.18242,4.18242,0,0,1,314.60675,237.33323Zm20.684-4.012a5.827,5.827,0,0,0-5.044,2.5665v-2.2125h-4.219v16.225h4.219v-8.5255c0-2.655,1.268-4.0415,3.658-4.0415,2.242,0,3.038,1.18,3.038,3.304v9.263h4.219v-10.1775C341.16176,235.74023,338.94876,233.32123,335.29076,233.32123Zm-137.7625,30.929h-7.4635v20.65h7.4635a10.32764,10.32764,0,1,0,0-20.65Zm0,16.638h-3.245v-12.626h3.245a6.31307,6.31307,0,1,1,0,12.626Zm27.8593,4.012h4.484l-7.729-20.65h-5.3395l-7.729,20.65h4.4545l1.77-4.8675h8.3485Zm-8.6435-8.8795,2.714-7.493,2.714,7.493Zm24.6005-12.1245a10.67936,10.67936,0,1,0,10.7675,10.679A10.50682,10.50682,0,0,0,241.34456,263.89623Zm0,4.012a6.66941,6.66941,0,1,1-6.49,6.667A6.38868,6.38868,0,0,1,241.34456,267.90823Z" transform="translate(-120.59055 -226.18223)"/><rect class="b" y="3.77402" width="15.33492" height="16.39251" rx="3.52527"/><rect class="c" y="22.98672" width="15.33492" height="16.56878" rx="3.52527"/><rect class="d" y="42.37583" width="15.33492" height="16.39251" rx="3.52527"/><rect class="e" x="18.50783" y="3.77402" width="15.33492" height="16.39251" rx="3.52527"/><rect class="e" x="18.50783" y="22.98672" width="15.33492" height="16.56878" rx="3.52527"/><rect class="e" x="18.50783" y="42.37583" width="15.33492" height="16.39251" rx="3.52527"/><rect class="d" x="37.01467" y="3.77402" width="15.33491" height="16.39251" rx="3.52527"/><rect class="b" x="37.01467" y="22.98672" width="15.33491" height="16.56878" rx="3.52527"/><rect class="c" x="37.01467" y="42.37583" width="15.33491" height="16.39251" rx="3.52527"/></svg>