<svg width="180" height="180" viewBox="0 0 180 180" fill="none" xmlns="http://www.w3.org/2000/svg">
<g filter="url(#filter0_d_183_1020)">
<rect x="11.1543" y="9.31372" width="158.427" height="158.427" rx="79.2136" fill="#141314"/>
<rect x="48" y="44.293" width="24.899" height="26.6162" rx="5.72391" fill="#D25A59"/>
<rect x="48" y="44.293" width="24.899" height="26.6162" rx="5.72391" stroke="#EEEEEE"/>
<rect x="48" y="75.4883" width="24.899" height="26.9024" rx="5.72391" fill="#E9AC65"/>
<rect x="48" y="75.4883" width="24.899" height="26.9024" rx="5.72391" stroke="#EEEEEE"/>
<rect x="48" y="106.97" width="24.899" height="26.6162" rx="5.72391" fill="#826FD8"/>
<rect x="48" y="106.97" width="24.899" height="26.6162" rx="5.72391" stroke="#EEEEEE"/>
<rect x="78.0508" y="44.293" width="24.899" height="26.6162" rx="5.72391" fill="#EEEEEE"/>
<rect x="78.0508" y="75.4883" width="24.899" height="26.9024" rx="5.72391" fill="#EEEEEE"/>
<rect x="78.0508" y="106.97" width="24.899" height="26.6162" rx="5.72391" fill="#EEEEEE"/>
<rect x="108.1" y="44.293" width="24.899" height="26.6162" rx="5.72391" fill="#826FD8"/>
<rect x="108.1" y="44.293" width="24.899" height="26.6162" rx="5.72391" stroke="white"/>
<rect x="108.1" y="75.4883" width="24.899" height="26.9024" rx="5.72391" fill="#D25A59"/>
<rect x="108.1" y="75.4883" width="24.899" height="26.9024" rx="5.72391" stroke="white"/>
<rect x="108.1" y="106.97" width="24.899" height="26.6162" rx="5.72391" fill="#E9AC65"/>
<rect x="108.1" y="106.97" width="24.899" height="26.6162" rx="5.72391" stroke="white"/>
<rect x="6.90313" y="5.06255" width="166.93" height="166.93" rx="83.4648" stroke="black" stroke-width="8.50234"/>
</g>
<defs>
<filter id="filter0_d_183_1020" x="0.782995" y="0.811401" width="179.17" height="179.171" filterUnits="userSpaceOnUse" color-interpolation-filters="sRGB">
<feFlood flood-opacity="0" result="BackgroundImageFix"/>
<feColorMatrix in="SourceAlpha" type="matrix" values="0 0 0 0 0 0 0 0 0 0 0 0 0 0 0 0 0 0 127 0" result="hardAlpha"/>
<feOffset dy="1.86935"/>
<feGaussianBlur stdDeviation="0.934674"/>
<feComposite in2="hardAlpha" operator="out"/>
<feColorMatrix type="matrix" values="0 0 0 0 0 0 0 0 0 0 0 0 0 0 0 0 0 0 0.25 0"/>
<feBlend mode="normal" in2="BackgroundImageFix" result="effect1_dropShadow_183_1020"/>
<feBlend mode="normal" in="SourceGraphic" in2="effect1_dropShadow_183_1020" result="shape"/>
</filter>
</defs>
</svg>
