<svg width="152" height="60" viewBox="0 0 152 60" fill="none" xmlns="http://www.w3.org/2000/svg">
<path d="M14.107 7.362V3.35L0.242 3.35L0.242 24L14.107 24V19.988L4.4605 19.988V15.5335H13.3105V11.5215H4.4605L4.4605 7.362L14.107 7.362ZM29.2695 1.285V10.0465C28.1485 8.483 26.4375 7.421 24.1365 7.421C19.977 7.421 16.7615 10.8725 16.7615 15.8875C16.7615 20.873 19.9475 24.354 24.166 24.354C26.4375 24.354 28.1485 23.351 29.2695 21.817V24L33.488 24L33.488 1.285L29.2695 1.285ZM25.11 20.342C22.7795 20.342 21.0095 18.572 21.0095 15.8875C21.0095 13.2325 22.75 11.433 25.11 11.433C27.47 11.433 29.2695 13.2325 29.2695 15.8875C29.2695 18.572 27.47 20.342 25.11 20.342ZM47.4941 7.775V16.3005C47.4941 18.9555 46.2256 20.342 43.8951 20.342C41.7121 20.342 40.9156 19.162 40.9156 17.038V7.775L36.6971 7.775V17.9525C36.6971 21.9055 38.9096 24.354 42.4791 24.354C44.7211 24.354 46.3141 23.41 47.4941 21.758L47.4941 24H51.7126L51.7126 7.775L47.4941 7.775ZM63.1051 24.354C66.9991 24.354 70.5686 22.0825 71.2176 17.805H66.8811C66.3796 19.575 64.8456 20.46 63.1051 20.46C60.6271 20.46 58.9161 18.6015 58.9456 15.8875C58.9161 13.203 60.5681 11.315 63.1346 11.315C64.8456 11.315 66.3796 12.1705 66.8811 13.9405L71.2176 13.9405C70.5981 9.8105 67.0876 7.421 63.1346 7.421C58.2376 7.421 54.6681 11.079 54.6681 15.8875C54.6681 20.696 58.2376 24.354 63.1051 24.354ZM86.0169 7.775V10.0465C84.8959 8.483 83.1849 7.421 80.8839 7.421C76.7244 7.421 73.5089 10.8725 73.5089 15.8875C73.5089 20.873 76.6654 24.354 80.9134 24.354C83.1849 24.354 84.8664 23.351 85.9874 21.817V24H90.2059L90.2354 7.775L86.0169 7.775ZM81.8574 20.342C79.5269 20.342 77.7569 18.572 77.7569 15.8875C77.7569 13.2325 79.4974 11.433 81.8574 11.433C84.2174 11.433 86.0169 13.2325 86.0169 15.8875C86.0169 18.572 84.2174 20.342 81.8574 20.342ZM105.663 19.634C104.336 20.106 103.215 20.4305 102.271 20.4305C100.589 20.4305 99.6745 19.4275 99.6745 17.51V11.7575L105.693 11.7575V7.775L99.6745 7.775V3.35L95.456 4.2645V7.775L92.565 7.775V11.7575H95.456V17.746C95.456 22.407 98.288 24.354 101.533 24.354C103.48 24.354 105.486 23.646 106.371 23.056L105.663 19.634ZM111.249 0.281999C109.774 0.281999 108.624 1.3145 108.624 2.76C108.624 4.2055 109.774 5.2675 111.249 5.2675C112.783 5.2675 113.875 4.2055 113.875 2.76C113.875 1.3145 112.783 0.281999 111.249 0.281999ZM109.125 24H113.344V7.775L109.125 7.775V24ZM124.784 7.421C120.123 7.421 116.347 10.9905 116.347 15.8875C116.347 20.755 120.064 24.354 124.784 24.354C129.534 24.354 133.251 20.7845 133.251 15.8875C133.251 10.9905 129.475 7.421 124.784 7.421ZM124.784 11.433C127.144 11.433 128.973 13.2325 128.973 15.8875C128.973 18.572 127.144 20.342 124.784 20.342C122.424 20.342 120.595 18.572 120.595 15.8875C120.595 13.2325 122.424 11.433 124.784 11.433ZM145.468 7.421C143.226 7.421 141.604 8.3355 140.424 9.9875V7.775L136.205 7.775V24H140.424V15.4745C140.424 12.8195 141.692 11.433 144.082 11.433C146.324 11.433 147.12 12.613 147.12 14.737V24H151.339V13.8225C151.339 9.84 149.126 7.421 145.468 7.421ZM7.7055 38.35H0.242L0.242 59H7.7055C13.7235 59 18.2665 54.575 18.2665 48.675C18.2665 42.7455 13.7235 38.35 7.7055 38.35ZM7.7055 54.988H4.4605L4.4605 42.362H7.7055C11.4225 42.362 14.048 44.958 14.048 48.675C14.048 52.392 11.4225 54.988 7.7055 54.988ZM35.5648 59H40.0488L32.3198 38.35H26.9803L19.2513 59L23.7058 59L25.4758 54.1325H33.8243L35.5648 59ZM26.9213 50.1205L29.6353 42.6275L32.3493 50.1205H26.9213ZM51.5218 37.996C45.4448 37.996 40.7838 42.598 40.7838 48.675C40.7838 54.752 45.4448 59.354 51.5218 59.354C57.5988 59.354 62.2893 54.752 62.2893 48.675C62.2893 42.598 57.5988 37.996 51.5218 37.996ZM51.5218 42.008C55.2388 42.008 58.0118 44.8105 58.0118 48.675C58.0118 52.5395 55.2388 55.342 51.5218 55.342C47.8048 55.342 45.0318 52.5395 45.0318 48.675C45.0318 44.8105 47.8048 42.008 51.5218 42.008Z" fill="#DCDCDC"/>
</svg>
