<svg xmlns="http://www.w3.org/2000/svg" viewBox="0 0 99.9288 70.37017">
  <path fill="#fff" d="M56.20267,48.45406A28.102,28.102,0,1,1,28.10133,20.15995,28.19822,28.19822,0,0,1,56.20267,48.45406" transform="translate(0 -13.13591)"/>
  <path fill="#fff" d="M87.03057,48.45409c0,14.70962-6.29072,26.63407-14.05068,26.63407S58.92923,63.16371,58.92923,48.45409,65.22,21.82,72.97989,21.82,87.03057,33.74448,87.03057,48.45409" transform="translate(0 -13.13591)"/>
  <path fill="#fff" d="M99.64051,48.45406c0,13.17922-2.21246,23.863-4.94182,23.863s-4.94154-10.68378-4.94154-23.863,2.21218-23.863,4.94154-23.863,4.94182,10.68378,4.94182,23.863" transform="translate(0 -13.13591)"/>
  <path fill="none" d="M99.9288,13.13591H81.80615v.01525H18.12265v-.01525H0V83.479H7.30974v.02712h86.2669V83.479H99.9288ZM81.80615,31.27381V65.38343H18.12265V31.27381Z" transform="translate(0 -13.13591)"/>
</svg>
