<svg width="24" height="24" viewBox="0 0 24 24" fill="none" xmlns="http://www.w3.org/2000/svg">
<path fill-rule="evenodd" clip-rule="evenodd" d="M22 1.25H21.9462C19.769 1.24998 18.0461 1.24997 16.4538 1.52912C14.9454 1.79359 13.5689 2.30412 12 3.25821C10.4311 2.30412 9.05461 1.79359 7.54619 1.52913C5.95395 1.24997 4.23099 1.24998 2.05379 1.25H2.05378H2C1.80109 1.25 1.61032 1.32902 1.46967 1.46967C1.32902 1.61032 1.25 1.80109 1.25 2V12.6571L1.25 12.6866V12.6866C1.24999 13.2123 1.24999 13.6501 1.27802 14.0072C1.30718 14.3786 1.37018 14.728 1.53293 15.0585C1.78743 15.5753 2.16945 15.9751 2.67415 16.2528C3.00137 16.4329 3.3604 16.5109 3.74223 16.5568C4.11389 16.6016 4.57637 16.6226 5.13741 16.6482L5.16613 16.6495C7.59527 16.76 9.29896 17.1552 11.5944 18.6309C11.8415 18.7897 12.1585 18.7897 12.4056 18.6309C14.701 17.1552 16.4047 16.76 18.8339 16.6495L18.8626 16.6482C19.4236 16.6226 19.8861 16.6016 20.2578 16.5568C20.6396 16.5109 20.9986 16.4329 21.3258 16.2528C21.8306 15.9751 22.2126 15.5753 22.4671 15.0585C22.6298 14.728 22.6928 14.3786 22.722 14.0072C22.75 13.6501 22.75 13.2123 22.75 12.6866V12.6571V2C22.75 1.58579 22.4142 1.25 22 1.25ZM7.28715 3.00659C8.60209 3.23713 9.8118 3.67896 11.25 4.55773V16.6851C9.21804 15.5917 7.46482 15.2526 5.23434 15.151C4.63738 15.1239 4.23108 15.1049 3.92157 15.0676C3.61591 15.0308 3.47818 14.9832 3.39734 14.9387C3.16199 14.8092 2.99728 14.6368 2.8786 14.3958C2.83559 14.3084 2.7957 14.1736 2.77342 13.8898C2.75054 13.5984 2.75 13.2198 2.75 12.6571V2.75048C4.6075 2.75388 6.00403 2.78163 7.28715 3.00659ZM18.7657 15.151C16.5352 15.2526 14.782 15.5917 12.75 16.6851V4.55773C14.1882 3.67896 15.3979 3.23713 16.7129 3.00659C17.996 2.78163 19.3925 2.75388 21.25 2.75048V12.6571C21.25 13.2198 21.2495 13.5984 21.2266 13.8898C21.2043 14.1736 21.1644 14.3084 21.1214 14.3958C21.0027 14.6368 20.838 14.8092 20.6027 14.9387C20.5218 14.9832 20.3841 15.0308 20.0784 15.0676C19.7689 15.1049 19.3626 15.1239 18.7657 15.151ZM3 18.75C2.58579 18.75 2.25 19.0858 2.25 19.5C2.25 19.9142 2.58579 20.25 3 20.25C4.97377 20.25 6.39687 20.3743 7.67766 20.7236C8.95056 21.0707 10.1262 21.6522 11.584 22.624C11.8359 22.792 12.1641 22.792 12.416 22.624C13.8738 21.6522 15.0494 21.0707 16.3223 20.7236C17.6031 20.3743 19.0262 20.25 21 20.25C21.4142 20.25 21.75 19.9142 21.75 19.5C21.75 19.0858 21.4142 18.75 21 18.75C18.9738 18.75 17.3969 18.8757 15.9277 19.2764C14.585 19.6426 13.3686 20.2283 12 21.1041C10.6314 20.2283 9.41499 19.6426 8.07234 19.2764C6.60313 18.8757 5.02624 18.75 3 18.75Z" fill="#9aa1b2"/>
</svg>
