<svg width="24" height="24" viewBox="0 0 24 24" fill="none" xmlns="http://www.w3.org/2000/svg">
<path fill-rule="evenodd" clip-rule="evenodd" d="M12 2.25C6.61522 2.25 2.25 6.61522 2.25 12C2.25 17.3848 6.61522 21.75 12 21.75C17.3848 21.75 21.75 17.3848 21.75 12C21.75 6.61522 17.3848 2.25 12 2.25ZM3.75 12C3.75 7.44365 7.44365 3.75 12 3.75C16.5563 3.75 20.25 7.44365 20.25 12C20.25 16.5563 16.5563 20.25 12 20.25C7.44365 20.25 3.75 16.5563 3.75 12ZM11.8889 7.25C9.30713 7.25 7.25 9.3967 7.25 12C7.25 14.6033 9.30713 16.75 11.8889 16.75C12.9378 16.75 13.9055 16.3927 14.6808 15.7938C15.0316 15.5227 15.3431 15.2022 15.6056 14.8428C15.85 14.5083 15.7769 14.0391 15.4424 13.7948C15.1079 13.5504 14.6387 13.6235 14.3944 13.958C14.2145 14.2043 14.0018 14.4228 13.7637 14.6068C13.239 15.0122 12.5909 15.25 11.8889 15.25C10.1751 15.25 8.75 13.815 8.75 12C8.75 10.185 10.1751 8.75 11.8889 8.75C12.5909 8.75 13.239 8.98784 13.7637 9.39321C14.0018 9.57719 14.2145 9.79572 14.3944 10.042C14.6387 10.3765 15.1079 10.4496 15.4424 10.2052C15.7769 9.96092 15.85 9.49171 15.6056 9.15722C15.3431 8.79776 15.0316 8.47726 14.6808 8.2062C13.9055 7.60727 12.9378 7.25 11.8889 7.25Z" fill="#fff"/>
</svg>
