<svg width="24" height="24" viewBox="0 0 24 24" fill="none" xmlns="http://www.w3.org/2000/svg">
<path fill-rule="evenodd" clip-rule="evenodd" d="M16.25 2C16.25 2.41421 16.5858 2.75 17 2.75H20.1893L11.4697 11.4697C11.1768 11.7626 11.1768 12.2374 11.4697 12.5303C11.7626 12.8232 12.2374 12.8232 12.5303 12.5303L21.25 3.81066V7C21.25 7.41421 21.5858 7.75 22 7.75C22.4142 7.75 22.75 7.41421 22.75 7V2C22.75 1.58579 22.4142 1.25 22 1.25H17C16.5858 1.25 16.25 1.58579 16.25 2ZM10 3.25L9.96644 3.25C8.59472 3.25 7.51929 3.24999 6.65494 3.32061C5.77479 3.39252 5.04769 3.54138 4.38955 3.87671C3.30762 4.42798 2.42798 5.30762 1.87671 6.38955C1.54138 7.04768 1.39252 7.77479 1.32061 8.65494C1.24999 9.51929 1.25 10.5947 1.25 11.9664V12V14V14.0336C1.25 15.4053 1.24999 16.4807 1.32061 17.3451C1.39252 18.2252 1.54138 18.9523 1.87671 19.6104C2.42798 20.6924 3.30762 21.572 4.38956 22.1233C5.04768 22.4586 5.77479 22.6075 6.65494 22.6794C7.51927 22.75 8.59469 22.75 9.96637 22.75H9.96642H10H12H12.0336H12.0336C13.4053 22.75 14.4807 22.75 15.3451 22.6794C16.2252 22.6075 16.9523 22.4586 17.6104 22.1233C18.6924 21.572 19.572 20.6924 20.1233 19.6104C20.4586 18.9523 20.6075 18.2252 20.6794 17.3451C20.75 16.4807 20.75 15.4053 20.75 14.0336V14.0336V14V11C20.75 10.5858 20.4142 10.25 20 10.25C19.5858 10.25 19.25 10.5858 19.25 11V14C19.25 15.4125 19.2494 16.4268 19.1844 17.2229C19.12 18.0103 18.9964 18.518 18.7868 18.9295C18.3793 19.7291 17.7291 20.3793 16.9295 20.7868C16.518 20.9964 16.0103 21.12 15.2229 21.1844C14.4268 21.2494 13.4125 21.25 12 21.25H10C8.58749 21.25 7.57322 21.2494 6.77708 21.1844C5.9897 21.12 5.48197 20.9964 5.07054 20.7868C4.27085 20.3793 3.62068 19.7291 3.21322 18.9295C3.00359 18.518 2.87996 18.0103 2.81563 17.2229C2.75058 16.4268 2.75 15.4125 2.75 14V12C2.75 10.5875 2.75058 9.57322 2.81563 8.77708C2.87996 7.9897 3.00359 7.48197 3.21322 7.07054C3.62068 6.27085 4.27085 5.62068 5.07054 5.21322C5.48197 5.00359 5.9897 4.87996 6.77708 4.81563C7.57322 4.75058 8.58749 4.75 10 4.75H13C13.4142 4.75 13.75 4.41421 13.75 4C13.75 3.58579 13.4142 3.25 13 3.25H10Z" fill="#E9AC65"/>
</svg>
