<svg width="24" height="24" viewBox="0 0 24 24" fill="none" xmlns="http://www.w3.org/2000/svg">
<path fill-rule="evenodd" clip-rule="evenodd" d="M11.5661 1.25L11.6 1.25L12.4 1.25L12.4339 1.25L12.4339 1.25C14.0854 1.25 15.3708 1.25 16.4019 1.33424C17.4488 1.41977 18.2993 1.59588 19.0644 1.98571C20.3345 2.63285 21.3671 3.66547 22.0143 4.93557C22.4041 5.70065 22.5802 6.55125 22.6658 7.59814C22.75 8.6292 22.75 9.91456 22.75 11.5659L22.75 11.566L22.75 11.566L22.75 11.6L22.75 12.4L22.75 12.434L22.75 12.434L22.75 12.4341C22.75 14.0854 22.75 15.3708 22.6658 16.4019C22.5802 17.4488 22.4041 18.2994 22.0143 19.0644C21.3671 20.3345 20.3345 21.3672 19.0644 22.0143C18.2993 22.4041 17.4488 22.5802 16.4019 22.6658C15.3708 22.75 14.0854 22.75 12.4341 22.75L12.434 22.75L12.434 22.75L12.4 22.75L11.6 22.75L11.566 22.75L11.566 22.75L11.5659 22.75C9.91456 22.75 8.6292 22.75 7.59814 22.6658C6.55124 22.5802 5.70065 22.4041 4.93556 22.0143C3.66547 21.3672 2.63285 20.3345 1.9857 19.0644C1.59587 18.2994 1.41977 17.4488 1.33423 16.4019C1.24999 15.3708 1.24999 14.0854 1.25 12.434L1.25 12.4339L1.25 12.4L1.25 11.6L1.25 11.5661C1.24999 9.91462 1.24999 8.62922 1.33423 7.59814C1.41977 6.55125 1.59587 5.70065 1.9857 4.93557C2.63285 3.66547 3.66547 2.63285 4.93556 1.98571C5.70065 1.59588 6.55124 1.41977 7.59814 1.33424C8.62922 1.25 9.91461 1.25 11.566 1.25L11.5661 1.25ZM7.72028 2.82926C6.76615 2.90721 6.13493 3.05809 5.61655 3.32222C4.6287 3.82555 3.82555 4.6287 3.32221 5.61655C3.05808 6.13494 2.90721 6.76616 2.82925 7.72029C2.75058 8.68318 2.75 9.90747 2.75 11.6L2.75 12.4C2.75 14.0925 2.75058 15.3168 2.82925 16.2797C2.90721 17.2338 3.05808 17.8651 3.32221 18.3835C3.82555 19.3713 4.6287 20.1745 5.61655 20.6778C6.13493 20.9419 6.76615 21.0928 7.72028 21.1707C8.68317 21.2494 9.90747 21.25 11.6 21.25L12.4 21.25C14.0925 21.25 15.3168 21.2494 16.2797 21.1707C17.2338 21.0928 17.8651 20.9419 18.3834 20.6778C19.3713 20.1745 20.1744 19.3713 20.6778 18.3835C20.9419 17.8651 21.0928 17.2338 21.1707 16.2797C21.2494 15.3168 21.25 14.0925 21.25 12.4L21.25 11.6C21.25 9.90747 21.2494 8.68318 21.1707 7.72029C21.0928 6.76616 20.9419 6.13494 20.6778 5.61655C20.1744 4.6287 19.3713 3.82555 18.3834 3.32222C17.8651 3.05809 17.2338 2.90721 16.2797 2.82926C15.3168 2.75059 14.0925 2.75 12.4 2.75L11.6 2.75C9.90746 2.75 8.68317 2.75059 7.72028 2.82926ZM6.46967 9.46967C6.76256 9.17678 7.23744 9.17678 7.53033 9.46967L10.5304 12.4697C10.671 12.6104 10.7501 12.8012 10.7501 13.0001C10.7501 13.199 10.671 13.3897 10.5304 13.5304L7.53026 16.5305C7.23737 16.8233 6.76249 16.8233 6.4696 16.5304C6.17671 16.2376 6.17672 15.7627 6.46961 15.4698L8.93939 13.0001L6.46967 10.5303C6.17678 10.2374 6.17678 9.76257 6.46967 9.46967ZM13 15.25C12.5858 15.25 12.25 15.5858 12.25 16C12.25 16.4142 12.5858 16.75 13 16.75L17 16.75C17.4142 16.75 17.75 16.4142 17.75 16C17.75 15.5858 17.4142 15.25 17 15.25L13 15.25Z" fill="#9aa1b2"/>
</svg>
