<svg xmlns="http://www.w3.org/2000/svg" viewBox="0 0 480 480"><defs><style>.a{fill:none;}.b{fill:#ede7dc;}.c{fill:#2e222c;}</style></defs><rect class="a" width="480" height="480"/><rect class="b" width="480" height="480"/><rect class="c" x="240" y="160" width="80" height="80"/><rect class="c" x="320" y="80" width="80" height="80"/><rect class="c" x="400" width="80" height="80"/><rect class="c" x="160" y="240" width="80" height="80"/><rect class="c" x="80" y="320" width="80" height="80"/><rect class="c" y="400" width="80" height="80"/><rect class="c" x="320" y="240" width="80" height="80"/><rect class="c" x="400" y="160" width="80" height="80"/><rect class="c" x="240" y="320" width="80" height="80"/><rect class="c" x="160" y="400" width="80" height="80"/><rect class="c" x="400" y="320" width="80" height="80"/><rect class="c" x="320" y="400" width="80" height="80"/><rect class="c" x="80" y="160" width="80" height="80"/><rect class="c" x="160" y="80" width="80" height="80"/><rect class="c" x="240" width="80" height="80"/><rect class="c" y="240" width="80" height="80"/><rect class="c" y="80" width="80" height="80"/><rect class="c" x="80" width="80" height="80"/></svg>