<svg id="logo-4"
	xmlns="http://www.w3.org/2000/svg"
	xmlnsXlink="http://www.w3.org/1999/xlink"
	viewBox="-25 -25 350 350"
	shape-rendering="geometricPrecision"
	text-rendering="geometricPrecision">
	<style>
		#logo-4-u-e_to {
			animation: logo-4-u-e_to__to 4000ms linear infinite normal forwards
		}
		@keyframes logo-4-u-e_to__to {
			0% { transform: translate(18.642644px,25.903681px) }
			33.333333% {
				transform: translate(18.642644px,25.903681px);
				animation-timing-function: step-start
			}
			66.666667% {
				transform: translate(113.9355px,202.376419px);
				animation-timing-function: step-start
			}
			100% {
				transform: translate(16.571149px,114.516632px)
			}
		}
		#logo-4-u-u_to {
				animation: logo-4-u-u_to__to 4000ms linear infinite normal forwards
		}
		@keyframes logo-4-u-u_to__to {
			0% {
				transform: translate(208.9645px,26.280281px)
			}
			66.666667% {
				transform: translate(208.9645px,26.280281px);
				animation-timing-function: step-start
			}
			100% {
				transform: translate(113.935501px,26.280281px)
			}
		}
		#logo-4-u-c_to {
			animation: logo-4-u-c_to__to 4000ms linear infinite normal forwards
		}
		@keyframes logo-4-u-c_to__to {
			0% {
				transform: translate(17.701099px,114.140247px)
			}
			33.333333% {
				transform: translate(17.701099px,114.140247px);
				animation-timing-function: step-start
		 	}
			66.666667% {
				transform: translate(114.703951px,114.140247px);
				animation-timing-function: step-start
			}
			100% {
				transform: translate(114.703951px,202.38px)}} #logo-4-u-t_to {
				animation: logo-4-u-t_to__to 4000ms linear infinite normal forwards
		}
		@keyframes logo-4-u-t_to__to {
			0% { transform: translate(208.927002px,114.14035px) }
			33.333333% {
				transform: translate(208.927002px,114.14035px);
				animation-timing-function: step-start
			}
			66.666667% { transform: translate(208.927002px,202.37665px) }
			100% {
				transform: translate(208.927002px,202.37665px)}} #logo-4-u-i_to {
				animation: logo-4-u-i_to__to 4000ms linear infinite normal forwards
		}
		@keyframes logo-4-u-i_to__to {
			0% { transform: translate(17.701089px,202.376495px) }
			66.666667% {
				transform: translate(17.701089px,202.376495px);
				animation-timing-function: step-start
			}
			100% {
				transform: translate(211.842241px,114.14px)}} #logo-4-u-n_to {
				animation: logo-4-u-n_to__to 4000ms linear infinite normal forwards
		}
		@keyframes logo-4-u-n_to__to {
			0% { transform: translate(208.9645px,202.376495px) }
			33.333333% {
				transform: translate(208.9645px,202.376495px);
				animation-timing-function: step-start
			}
			66.666667% { transform: translate(14.958796px,24.537933px) }
			100% {
				transform: translate(14.958796px,24.537933px)}} #logo-4-u-d_to {
				animation: logo-4-u-d_to__to 4000ms linear infinite normal forwards
		}
		@keyframes logo-4-u-d_to__to {
			0% { transform: translate(113.70945px,25.903681px) }
			33.333333% {
				transform: translate(113.70945px,25.903681px);
				animation-timing-function: step-start
			}
			66.666667% {
				transform: translate(16.57115px,114.516632px);
				animation-timing-function: step-start
			}
			100% {
				transform: translate(17.738745px,202.376881px)}} #logo-4-u-a_to {
				animation: logo-4-u-a_to__to 4000ms linear infinite normal forwards
		}
		@keyframes logo-4-u-a_to__to {
			0% { transform: translate(113.332653px,114.14035px) }
			33.333333% {
				transform: translate(113.332653px,114.14035px);
				animation-timing-function: step-start
			}
			66.666667% {
				transform: translate(113.935504px,26.280281px);
				animation-timing-function: step-start
			}
			100% {
				transform: translate(113.935504px,114.14px)}} #logo-4-u-o_to {
				animation: logo-4-u-o_to__to 4000ms linear infinite normal forwards
		}
		@keyframes logo-4-u-o_to__to {
			0% { transform: translate(113.332848px,202.376503px) }
			33.333333% {
				transform: translate(113.332848px,202.376503px);
				animation-timing-function: step-start
			}
			66.666667% {
				transform: translate(210.3357px,113.457222px);
				animation-timing-function: step-start
			}
			100% { transform: translate(210.3357px,26.28px) }
			}
		</style>
		<g id="logo-4-u-logo-5" transform="matrix(1.237077 0 0 1.237077 9.053012 8.334108)">
			<g id="logo-4-u-e_to" transform="translate(18.642644,25.903681)">
				<path id="logo-4-u-e" d="M34.7996,0.218262v7.758348h-23.953v13.93489h18.4544v7.683h-18.4544v14.2362h23.953v7.7584h-32.31391v-51.370838h32.31391Z" transform="translate(-18.642644,-25.903681)" fill="#f1f1f1"/>
			</g>
			<g id="logo-4-u-u_to" transform="translate(208.9645,26.280281)">
				<path id="logo-4-u-u" d="M208.739,52.3423c-5.223,0-9.315-1.5064-12.278-4.5194-2.913-3.0129-4.369-7.3315-4.369-12.9557v-34.648938h8.361v34.648938c0,3.716.603,6.3021,1.808,7.7584s3.364,2.1844,6.478,2.1844h.452c3.113,0,5.272-.7282,6.478-2.1844c1.255-1.4563,1.883-4.0424,1.883-7.7584v-34.648938h8.285v34.648938c0,5.6242-1.481,9.9428-4.444,12.9557-2.912,3.013-6.98,4.5194-12.202,4.5194h-.452Z" transform="translate(-208.9645,-26.280281)" fill="#f1f1f1"/>
			</g>
			<g id="logo-4-u-c_to" transform="translate(17.701099,114.140247)">
				<path id="logo-4-u-c" d="M17.4751,140.579c-5.3229,0-9.5661-1.607-12.7297-4.821s-4.7454-7.884-4.7454-14.01v-15.216c0-6.126,1.5818-10.796,4.7454-14.0098s7.4068-4.8207,12.7297-4.8207h.452c5.3228,0,9.5661,1.6069,12.7297,4.8207s4.7454,7.8838,4.7454,14.0098h-8.361c0-4.167-.7281-7.08-2.1843-8.7371-1.4061-1.7074-3.716-2.5611-6.9298-2.5611h-.452c-3.2138,0-5.5488.8537-7.0051,2.5611-1.40604,1.6571-2.10906,4.5701-2.10906,8.7371v15.216c0,4.168.70302,7.105,2.10906,8.813c1.4563,1.657,3.7913,2.485,7.0051,2.485h.452c3.2138,0,5.5237-.828,6.9298-2.485c1.4562-1.708,2.1843-4.645,2.1843-8.813h8.361c0,6.126-1.5818,10.796-4.7454,14.01s-7.4069,4.821-12.7297,4.821h-.452Z" transform="translate(-17.701099,-114.140247)" fill="#f1f1f1"/>
			</g>
			<g id="logo-4-u-t_to" transform="translate(208.927002,114.14035)">
				<path id="logo-4-u-t" d="M189.983,88.4547h37.888v7.7584h-14.764v43.6129h-8.36v-43.6129h-14.764v-7.7584Z" transform="translate(-208.927002,-114.14035)" fill="#f1f1f1"/>
			</g>
			<g id="logo-4-u-i_to" transform="translate(17.701089,202.376495)">
				<path id="logo-4-u-i" d="M33.8957,176.691v7.759h-12.0518v35.854h12.0518v7.758h-32.38922v-7.758h11.97652v-35.854h-11.97652v-7.759h32.38922Z" transform="translate(-17.701089,-202.376495)" fill="#f1f1f1"/>
			</g>
			<g id="logo-4-u-n_to" transform="translate(208.9645,202.376495)">
				<path id="logo-4-u-n" d="M200.453,228.062h-8.06v-51.371h11.751l12.504,38.265h.828v-38.265h8.06v51.371h-11.751l-12.503-38.264h-.829v38.264Z" transform="translate(-208.9645,-202.376495)" fill="#f1f1f1"/>
			</g>
			<g id="logo-4-u-d_to" transform="translate(113.70945,25.903681)">
				<path id="logo-4-u-d" d="M113.559,0.218262c5.323,0,9.566,1.606908,12.729,4.820728c3.164,3.21381,4.746,7.88391,4.746,14.01021v13.7089c0,6.1264-1.582,10.7965-4.746,14.0103-3.163,3.2138-7.406,4.8207-12.729,4.8207h-17.1741v-51.370838h17.1741ZM122.673,19.0492c0-4.1679-.728-7.0553-2.184-8.6622-1.407-1.60693-3.716-2.41039-6.93-2.41039h-8.813v35.85409h8.813c3.214,0,5.523-.8034,6.93-2.4103c1.456-1.6571,2.184-4.5446,2.184-8.6623v-13.7089Z" transform="translate(-113.70945,-25.903681)" fill="#a798ef"/>
			</g>
			<g id="logo-4-u-a_to" transform="translate(113.332653,114.14035)">
				<path id="logo-4-u-a" d="M133.218,139.826h-8.662l-3.54-14.538h-15.065l-3.616,14.538h-8.8877L107.232,88.4547h12.503l13.483,51.3713ZM113.107,96.2131L107.834,117.53h11.299l-5.198-21.3169h-.828Z" transform="translate(-113.332653,-114.14035)" fill="#a798ef"/>
			</g>
			<g id="logo-4-u-o_to" transform="translate(113.332848,202.376503)">
				<path id="logo-4-u-o" d="M113.107,228.815c-5.323,0-9.566-1.607-12.73-4.82-3.1635-3.214-4.7453-7.884-4.7453-14.011v-15.215c0-6.126,1.5818-10.797,4.7453-14.01c3.164-3.214,7.407-4.821,12.73-4.821h.452c5.323,0,9.566,1.607,12.729,4.821c3.164,3.213,4.746,7.884,4.746,14.01v15.215c0,6.127-1.582,10.797-4.746,14.011-3.163,3.213-7.406,4.82-12.729,4.82h-.452Zm.452-7.532c3.214,0,5.523-.829,6.93-2.486c1.456-1.707,2.184-4.645,2.184-8.813v-15.215c0-4.168-.728-7.081-2.184-8.738-1.407-1.707-3.716-2.561-6.93-2.561h-.452c-3.214,0-5.549.854-7.005,2.561-1.406,1.657-2.109,4.57-2.109,8.738v15.215c0,4.168.703,7.106,2.109,8.813c1.456,1.657,3.791,2.486,7.005,2.486h.452Z" transform="translate(-113.332848,-202.376503)" fill="#a798ef"/>
			</g>
		</g>
	</svg>
