<svg width="70" height="65" viewBox="0 0 70 65" fill="none" xmlns="http://www.w3.org/2000/svg">
<path d="M65.7996 0.999977L39.1609 20.7638L44.1145 9.11631L65.7996 0.999977Z" fill="#E17726" stroke="#E17726" stroke-width="0.034924" stroke-linecap="round" stroke-linejoin="round"/>
<path d="M4.35403 0.999954L30.7556 20.9482L26.0391 9.11629L4.35403 0.999954Z" fill="#E27625" stroke="#E27625" stroke-width="0.034924" stroke-linecap="round" stroke-linejoin="round"/>
<path d="M56.2085 46.8257L49.1207 57.6826L64.2976 61.8725L68.6451 47.0628L56.2085 46.8257Z" fill="#E27625" stroke="#E27625" stroke-width="0.034924" stroke-linecap="round" stroke-linejoin="round"/>
<path d="M1.53468 47.0628L5.85589 61.8725L21.0065 57.6826L13.945 46.8257L1.53468 47.0628Z" fill="#E27625" stroke="#E27625" stroke-width="0.034924" stroke-linecap="round" stroke-linejoin="round"/>
<path d="M20.1897 28.4847L15.9739 34.8618L30.9927 35.547L30.4921 19.3407L20.1897 28.4847Z" fill="#E27625" stroke="#E27625" stroke-width="0.034924" stroke-linecap="round" stroke-linejoin="round"/>
<path d="M49.9638 28.4848L39.5034 19.1562L39.1608 35.547L54.1797 34.8619L49.9638 28.4848Z" fill="#E27625" stroke="#E27625" stroke-width="0.034924" stroke-linecap="round" stroke-linejoin="round"/>
<path d="M21.0065 57.6825L30.0968 53.2818L22.2712 47.1682L21.0065 57.6825Z" fill="#E27625" stroke="#E27625" stroke-width="0.034924" stroke-linecap="round" stroke-linejoin="round"/>
<path d="M40.0567 53.2818L49.1207 57.6825L47.8823 47.1682L40.0567 53.2818Z" fill="#E27625" stroke="#E27625" stroke-width="0.034924" stroke-linecap="round" stroke-linejoin="round"/>
<path d="M49.1207 57.6827L40.0567 53.2819L40.7944 59.1847L40.7154 61.6881L49.1207 57.6827Z" fill="#D5BFB2" stroke="#D5BFB2" stroke-width="0.034924" stroke-linecap="round" stroke-linejoin="round"/>
<path d="M21.0065 57.6826L29.4381 61.6881L29.3854 59.1847L30.0968 53.2819L21.0065 57.6826Z" fill="#D5BFB2" stroke="#D5BFB2" stroke-width="0.034924" stroke-linecap="round" stroke-linejoin="round"/>
<path d="M29.5962 43.2681L22.0605 41.0546L27.3829 38.6039L29.5962 43.2681Z" fill="#233447" stroke="#233447" stroke-width="0.034924" stroke-linecap="round" stroke-linejoin="round"/>
<path d="M40.5573 43.2681L42.7706 38.6039L48.1194 41.0546L40.5573 43.2681Z" fill="#233447" stroke="#233447" stroke-width="0.034924" stroke-linecap="round" stroke-linejoin="round"/>
<path d="M21.0065 57.6826L22.3239 46.8257L13.945 47.0629L21.0065 57.6826Z" fill="#CC6228" stroke="#CC6228" stroke-width="0.034924" stroke-linecap="round" stroke-linejoin="round"/>
<path d="M47.8296 46.8257L49.1207 57.6826L56.2085 47.0629L47.8296 46.8257Z" fill="#CC6228" stroke="#CC6228" stroke-width="0.034924" stroke-linecap="round" stroke-linejoin="round"/>
<path d="M54.1797 34.862L39.1608 35.5471L40.5573 43.2682L42.7706 38.6039L48.1194 41.0547L54.1797 34.862Z" fill="#CC6228" stroke="#CC6228" stroke-width="0.034924" stroke-linecap="round" stroke-linejoin="round"/>
<path d="M22.0604 41.0547L27.3829 38.6039L29.5962 43.2682L30.9927 35.5471L15.9738 34.862L22.0604 41.0547Z" fill="#CC6228" stroke="#CC6228" stroke-width="0.034924" stroke-linecap="round" stroke-linejoin="round"/>
<path d="M15.9739 34.8619L22.2713 47.1681L22.0605 41.0545L15.9739 34.8619Z" fill="#E27525" stroke="#E27525" stroke-width="0.034924" stroke-linecap="round" stroke-linejoin="round"/>
<path d="M48.1195 41.0547L47.8823 47.1683L54.1797 34.862L48.1195 41.0547Z" fill="#E27525" stroke="#E27525" stroke-width="0.034924" stroke-linecap="round" stroke-linejoin="round"/>
<path d="M30.9927 35.547L29.5962 43.2681L31.3616 52.3858L31.7568 40.3694L30.9927 35.547Z" fill="#E27525" stroke="#E27525" stroke-width="0.034924" stroke-linecap="round" stroke-linejoin="round"/>
<path d="M39.1608 35.547L38.4231 40.343L38.7919 52.3858L40.5573 43.2681L39.1608 35.547Z" fill="#E27525" stroke="#E27525" stroke-width="0.034924" stroke-linecap="round" stroke-linejoin="round"/>
<path d="M40.5574 43.2681L38.792 52.3858L40.0567 53.2817L47.8824 47.1681L48.1195 41.0546L40.5574 43.2681Z" fill="#F5841F" stroke="#F5841F" stroke-width="0.034924" stroke-linecap="round" stroke-linejoin="round"/>
<path d="M22.0605 41.0546L22.2713 47.1681L30.0969 53.2817L31.3616 52.3858L29.5962 43.2681L22.0605 41.0546Z" fill="#F5841F" stroke="#F5841F" stroke-width="0.034924" stroke-linecap="round" stroke-linejoin="round"/>
<path d="M40.7154 61.6879L40.7945 59.1844L40.1094 58.6047H30.0441L29.3854 59.1844L29.4381 61.6879L21.0065 57.6824L23.9576 60.1068L29.9387 64.244H40.1884L46.196 60.1068L49.1207 57.6824L40.7154 61.6879Z" fill="#C0AC9D" stroke="#C0AC9D" stroke-width="0.034924" stroke-linecap="round" stroke-linejoin="round"/>
<path d="M40.0567 53.2818L38.792 52.3858H31.3616L30.0968 53.2818L29.3854 59.1846L30.0441 58.6048H40.1094L40.7945 59.1846L40.0567 53.2818Z" fill="#161616" stroke="#161616" stroke-width="0.034924" stroke-linecap="round" stroke-linejoin="round"/>
<path d="M66.9325 22.055L69.1722 11.1454L65.7995 0.999977L40.0567 20.105L49.9639 28.4848L63.9551 32.5694L67.0379 28.9592L65.6941 27.9842L67.8284 26.0341L66.1948 24.7692L68.329 23.1354L66.9325 22.055Z" fill="#763E1A" stroke="#763E1A" stroke-width="0.034924" stroke-linecap="round" stroke-linejoin="round"/>
<path d="M0.9814 11.1454L3.2474 22.055L1.79821 23.1355L3.95882 24.7693L2.32519 26.0342L4.45945 27.9842L3.11565 28.9592L6.19847 32.5694L20.1897 28.4849L30.0969 20.105L4.35405 1L0.9814 11.1454Z" fill="#763E1A" stroke="#763E1A" stroke-width="0.034924" stroke-linecap="round" stroke-linejoin="round"/>
<path d="M63.9551 32.5693L49.9638 28.4847L54.1797 34.8619L47.8823 47.1681L56.2085 47.0627H68.6452L63.9551 32.5693Z" fill="#F5841F" stroke="#F5841F" stroke-width="0.034924" stroke-linecap="round" stroke-linejoin="round"/>
<path d="M20.1897 28.4847L6.19843 32.5693L1.53468 47.0627H13.945L22.2712 47.1681L15.9738 34.8619L20.1897 28.4847Z" fill="#F5841F" stroke="#F5841F" stroke-width="0.034924" stroke-linecap="round" stroke-linejoin="round"/>
<path d="M39.1608 35.547L40.0567 20.1049L44.1144 9.1162H26.0391L30.0968 20.1049L30.9927 35.547L31.3352 40.3957L31.3616 52.3857H38.7919L38.8183 40.3957L39.1608 35.547Z" fill="#F5841F" stroke="#F5841F" stroke-width="0.034924" stroke-linecap="round" stroke-linejoin="round"/>
</svg>
