<svg width="24" height="24" viewBox="0 0 24 24" fill="none" xmlns="http://www.w3.org/2000/svg">
<path fill-rule="evenodd" clip-rule="evenodd" d="M8.40012 1.25H8.36712H8.36711C7.27497 1.24999 6.40948 1.24999 5.71186 1.30699C4.99847 1.36527 4.39484 1.48688 3.84367 1.76772C2.9499 2.22312 2.22324 2.94978 1.76784 3.84355C1.487 4.39472 1.3654 4.99835 1.30711 5.71173C1.25011 6.40935 1.25012 7.27485 1.25012 8.36699V8.367V8.4V9.6V9.633V9.63301C1.25012 10.7252 1.25011 11.5906 1.30711 12.2883C1.3654 13.0017 1.487 13.6053 1.76784 14.1565C2.22324 15.0502 2.9499 15.7769 3.84367 16.2323C4.39484 16.5131 4.99847 16.6347 5.71186 16.693C6.15275 16.729 6.66071 16.7423 7.25055 16.7472C7.25195 17.3255 7.25794 17.809 7.28363 18.2195C7.31786 18.7664 7.38911 19.2336 7.55457 19.6732C8.0364 20.9534 9.04674 21.9637 10.3269 22.4456C10.7665 22.611 11.2337 22.6823 11.7806 22.7165C12.3161 22.75 12.9759 22.75 13.8084 22.75H13.8335H15.6001H15.6331H15.6332C16.7253 22.75 17.5908 22.75 18.2884 22.693C19.0018 22.6347 19.6054 22.5131 20.1566 22.2323C21.0503 21.7769 21.777 21.0502 22.2324 20.1565C22.5132 19.6053 22.6348 19.0017 22.6931 18.2883C22.7501 17.5907 22.7501 16.7252 22.7501 15.633V15.633V15.6V13.8333V13.8083C22.7501 12.9758 22.7501 12.316 22.7166 11.7805C22.6824 11.2336 22.6111 10.7664 22.4457 10.3268C21.9638 9.04662 20.9535 8.03628 19.6733 7.55445C19.2337 7.38899 18.7665 7.31774 18.2197 7.28351C17.8092 7.25782 17.3256 7.25182 16.7473 7.25042C16.7424 6.66058 16.7292 6.15263 16.6931 5.71173C16.6348 4.99835 16.5132 4.39472 16.2324 3.84355C15.777 2.94978 15.0503 2.22312 14.1566 1.76772C13.6054 1.48688 13.0018 1.36527 12.2884 1.30699C11.5908 1.24999 10.7253 1.24999 9.63314 1.25H9.63312H9.60012H8.40012ZM16.7501 8.75048V9.6V9.63302V9.63303C16.7501 10.7252 16.7501 11.5907 16.6931 12.2883C16.6348 13.0017 16.5132 13.6053 16.2324 14.1565C15.777 15.0502 15.0503 15.7769 14.1566 16.2323C13.6054 16.5131 13.0018 16.6347 12.2884 16.693C11.5908 16.75 10.7253 16.75 9.63316 16.75H9.63314H9.60012H8.7506C8.75203 17.3183 8.75777 17.7594 8.7807 18.1258C8.81057 18.603 8.86751 18.9032 8.95843 19.1448C9.2881 20.0207 9.97939 20.712 10.8553 21.0417C11.0969 21.1326 11.3971 21.1896 11.8743 21.2194C12.3574 21.2497 12.9703 21.25 13.8335 21.25H15.6001C16.7326 21.25 17.5369 21.2494 18.1662 21.198C18.7869 21.1473 19.1711 21.0509 19.4756 20.8958C20.0871 20.5842 20.5843 20.087 20.8959 19.4755C21.051 19.171 21.1474 18.7867 21.1981 18.1661C21.2495 17.5367 21.2501 16.7325 21.2501 15.6V13.8333C21.2501 12.9702 21.2498 12.3573 21.2195 11.8742C21.1897 11.397 21.1327 11.0968 21.0418 10.8552C20.7121 9.97926 20.0209 9.28798 19.1449 8.95831C18.9034 8.86738 18.6031 8.81045 18.126 8.78058C17.7595 8.75765 17.3184 8.75191 16.7501 8.75048ZM4.52465 3.10423C4.82913 2.94909 5.21338 2.85271 5.834 2.80201C6.46339 2.75058 7.26764 2.75 8.40012 2.75H9.60012C10.7326 2.75 11.5369 2.75058 12.1662 2.80201C12.7869 2.85271 13.1711 2.94909 13.4756 3.10423C14.0871 3.41582 14.5843 3.913 14.8959 4.52453C15.051 4.829 15.1474 5.21325 15.1981 5.83388C15.2495 6.46327 15.2501 7.26752 15.2501 8.4V9.6C15.2501 10.7325 15.2495 11.5367 15.1981 12.1661C15.1474 12.7867 15.051 13.171 14.8959 13.4755C14.5843 14.087 14.0871 14.5842 13.4756 14.8958C13.1711 15.0509 12.7869 15.1473 12.1662 15.198C11.5369 15.2494 10.7326 15.25 9.60012 15.25H8.40012C7.26764 15.25 6.46339 15.2494 5.834 15.198C5.21338 15.1473 4.82913 15.0509 4.52465 14.8958C3.91313 14.5842 3.41594 14.087 3.10435 13.4755C2.94921 13.171 2.85284 12.7867 2.80213 12.1661C2.75071 11.5367 2.75012 10.7325 2.75012 9.6V8.4C2.75012 7.26752 2.75071 6.46327 2.80213 5.83388C2.85284 5.21325 2.94921 4.829 3.10435 4.52453C3.41594 3.913 3.91313 3.41582 4.52465 3.10423Z" fill="#9aa1b2"/>
</svg>
