<svg xmlns="http://www.w3.org/2000/svg" viewBox="0 0 384 384"><defs><style>.a{fill:#d9d9d9;}</style></defs><path class="a" d="M792,507H408V123H792ZM456,163a8,8,0,1,0,8,8A7.99986,7.99986,0,0,0,456,163Zm0,288a8,8,0,1,0,8,8A7.99985,7.99985,0,0,0,456,451Zm48-240a8,8,0,1,0,8,8A7.99986,7.99986,0,0,0,504,211Zm0,192a8,8,0,1,0,8,8A7.99985,7.99985,0,0,0,504,403Zm48-144a8,8,0,1,0,8,8A7.99985,7.99985,0,0,0,552,259Zm0,96a8,8,0,1,0,8,8A7.99985,7.99985,0,0,0,552,355Zm48-48a8,8,0,1,0,8,8A7.99985,7.99985,0,0,0,600,307Zm48-48a8,8,0,1,0,8,8A7.99985,7.99985,0,0,0,648,259Zm0,96a8,8,0,1,0,8,8A7.99985,7.99985,0,0,0,648,355Zm48-144a8,8,0,1,0,8,8A7.99986,7.99986,0,0,0,696,211Zm0,192a8,8,0,1,0,8,8A7.99985,7.99985,0,0,0,696,403Zm48-240a8,8,0,1,0,8,8A7.99986,7.99986,0,0,0,744,163Zm0,288a8,8,0,1,0,8,8A7.99985,7.99985,0,0,0,744,451Z" transform="translate(-408 -123)"/></svg>