<svg xmlns="http://www.w3.org/2000/svg" viewBox="0 0 480 480"><defs><style>.a{fill:none;}.b{fill:#ede7dc;}.c{fill:#2e222c;}</style></defs><rect class="a" width="480" height="480"/><rect class="b" width="480" height="480"/><path class="c" d="M374.60048,235.68151A120.84648,120.84648,0,0,1,390.805,225.215a101.72638,101.72638,0,0,1,15.57-7.59649c3.438-1.16151,6.6505-3.05,10.13-4.012,4.754-1.315,9.1975-3.452,14.0085-4.684,3.3245-.85151,6.649-2.06051,10.0315-2.803a121.7176,121.7176,0,0,1,16.523-2.971,213.74181,213.74181,0,0,1,22.125-1.978c4.2045.10249,8.427-.153,12.614.143,4.153.29349,8.051,2.77449,12.4265,1.54a2.5446,2.5446,0,0,1,1.1985.15749,100.26224,100.26224,0,0,0,10.551,2.61551c3.6645.515,6.438,3.06149,10.067,3.653a26.42517,26.42517,0,0,1,7.182,2.71849,84.61049,84.61049,0,0,1,10.368,5.25351c5.4515,3.67749,11.809,6.072,17.0425,9.99649,4.741,3.556,9.8425,6.55451,14.4945,10.19851,1.276.999,2.229,2.675,3.64049,3.188,4.339,1.57749,6.917,5.392,10.588,7.81249a141.48031,141.48031,0,0,1,11.02851,8.87851c5.125,4.176,10.279,8.317,15.37549,12.527,1.74551,1.442,3.25351,3.182,5.04751,4.554a159.78114,159.78114,0,0,1,17.32,15.287c1.02949,1.055,2.32449,1.847,3.38449,2.876,2.79451,2.71149,5.69,5.346,8.228,8.285a35.86862,35.86862,0,0,1,4.327,6.759A16.98506,16.98506,0,0,1,656.533,313.962a28.86834,28.86834,0,0,1-1.09351,12.84351c-1.317,3.33349-1.77849,6.99849-3.01449,10.372a156.32838,156.32838,0,0,1-7.646,19.37549,64.27511,64.27511,0,0,1-13.554,16.989,23.49581,23.49581,0,0,1-11.89851,6.594,40.67183,40.67183,0,0,1-11.25549.87951,23.38867,23.38867,0,0,1-14.65051-4.813c-1.127-1.07351-3.15-.937-3.883-2.698-.07-.16851-.798-.257-1.078-.11-1.443.757-2.579-.09451-3.84849-.534-5.338-1.847-9.7545-5.824-15.5115-6.69051a.695.695,0,0,1-.3505-.196,20.51209,20.51209,0,0,0-8.774-3.54149c-2.116-.72951-4.5705-.42451-6.7505-1.027a15.509,15.509,0,0,0-17.552,6.98749,16.04042,16.04042,0,0,0-2.651,4.966,22.08105,22.08105,0,0,1-10.6925,13.50551c-1.042.58249-2.563,1.14249-2.8715,2.05a13.7583,13.7583,0,0,0-.4285,10.252c1.789,4.2285,3.216,8.6105,4.792,12.928a133.4109,133.4109,0,0,1,5.1685,12.928c1.816,7.1725,4.6725,14.0605,6.2475,21.327a44.32049,44.32049,0,0,0,1.7785,5.28c2.02,5.701,3.353,11.611,5.275,17.3535.8105,2.421,2.0875,4.6055,2.805,7.0425a70.66313,70.66313,0,0,0,3.093,8.6235c1.3545,3.0615,3.089,5.953,4.568,8.963.7555,1.5375,2.0015,3.296,1.744,4.7235-.2085,1.1575-2.344,1.9535-3.6015,2.94a7.87923,7.87923,0,0,0-3.222,7.4555c.0265.242.278.6705.37.656.3415-.0525.874-.179.955-.411,1.039-2.96,3.638-4.61,5.612-6.778,1.533-1.6835,1.6835-1.7545,2.9315-.0115a54.6616,54.6616,0,0,0,2.7905,4.7565,33.4369,33.4369,0,0,0,4.695,3.72,2.86553,2.86553,0,0,1,.555.593c4.943,6.8875,12.569,10.457,19.064,15.4245,5.27149,1.5405,9.701,5.4825,15.525,5.449a63.36992,63.36992,0,0,0,20.77,2.766,184.24051,184.24051,0,0,0,20.245-.663c.27-.011.538-.0645.807-.097,4.13949-.5,8.283-.9695,12.417-1.5075,5.59749-.7295,11.176-1.6245,16.78549-2.24,5.55251-.609,10.849-3.4635,16.66151-1.919.42549.1135.991-.3315,1.499-.4945a47.55543,47.55543,0,0,1,5.727-1.782c5.15749-.958,10.368-1.6285,15.52549-2.587a80.9866,80.9866,0,0,1,17.30651-1.582c2.034.0615,4.077-.0875,6.10549.0305a70.6364,70.6364,0,0,1,7.626.76c2.341.395,4.60851,1.205,6.93851,1.687a26.94693,26.94693,0,0,1,12.87649,8.5425c.08951.0865.095.2535.16751.3655.718,1.115,1.482,2.2025,2.15549,3.344a64.89639,64.89639,0,0,1,3.734,6.5995c1.71651,3.891,3.482,7.76,5.21151,11.6475H732.133c.38849-.242.94749-.887.918-1.2255-.194-2.245-.58551-4.475-.99051-6.695-.03649-.201-.67849-.4455-1-.3985-.32749.0485-.83.3995-.86849.673-.169,1.196-.198,2.412-.26851,3.4855a10.36379,10.36379,0,0,0,.23151,2.941A2.55763,2.55763,0,0,0,731.647,555H666.059l.75449-1.3175-1.269-1.1655c-.37.6295-.975,1.238-1.032,1.8945A1.011,1.011,0,0,0,664.8,555H630.59c.387-.3015.771-.808.706-1.1125a8.48912,8.48912,0,0,0-1.39651-2.254c-.802.8725-1.42949,1.25-1.54649,1.747A1.627,1.627,0,0,0,629.187,555H611.733a3.39738,3.39738,0,0,0,.00349-.557q-.32173-2.37225-.645-4.745c-.38749-2.8105-2.68749-4.0175-4.914-2.308a7.95364,7.95364,0,0,0-3.615,6.674c.027.312.049.624.079.936H599.463c.182-.3925.38149-.8665.63749-1.3295-.74-.7085-1.399-1.3405-2.05849-1.972a6.77193,6.77193,0,0,0-.782,1.9675,3.09437,3.09437,0,0,0,.189,1.334h-38.16c-2.0505-.9445-4.1105-1.871-6.055-2.9975a26.28183,26.28183,0,0,1-5.434-4.1675c-3.202-3.225-6.215-6.6405-9.235-10.0395-.5055-.5685-.5775-1.4995-.9895-2.178-.4255-.701-.3705-2.055-1.8655-1.6015-.1435.0435-.6725-.521-.628-.615.84-1.7625-.63-2.656-1.579-3.329a10.35036,10.35036,0,0,1-2.8635-4.2655,3.08887,3.08887,0,0,1,.172-4.0475c.2875-.3175-.0245-1.1785-.0605-1.789a8.38676,8.38676,0,0,0-1.461.426c-.3515.171-.595.551-.9225.788a1.72665,1.72665,0,0,1-.6925.2875c-.1955-.314-.4775-.7025-.4245-1.016a5.41017,5.41017,0,0,1,.651-1.8635c1.0065-1.663.055-1.445-1.0915-1.2825a1.346,1.346,0,0,1-1.1445-.5115c-1.1265-2.853-2.1265-5.756-3.24-8.615-1.156-2.968-2.4015-5.9005-3.5975-8.8525a12.64688,12.64688,0,0,1-1.1255-3.0235,43.67387,43.67387,0,0,0-3.223-10.631,51.27027,51.27027,0,0,1-1.1465-5.505c-1.588-5.962-2.9715-12.0025-5.0075-17.812-1.214-3.464-1.4595-7.086-2.58-10.4775a63.71932,63.71932,0,0,0-4.8115-10.5825,61.10312,61.10312,0,0,0-5.036-9.902c-.9285-1.1485-.637-3.29-1.5725-4.426a96.18085,96.18085,0,0,0-7.4945-10.4425,1.47809,1.47809,0,0,1-.4435-.67c-.8405-3.5255-3.77-5.624-5.782-8.3265-1.9985-2.6835-4.4085-5.061-6.6485-7.5635-.5415-.606-1.3405-1.0815-1.6465-1.781a9.21076,9.21076,0,0,0-4.525-5.293c-.634-.28651-1.469-1.33351-1.359-1.85.448-2.106-.422-2.156-2.144-2.054-1.029.061-1.431-1.03851-1.022-2.154.3895-1.06051-.186-1.61651-1.155-1.54051-1.8695.14651-2.942-1.01249-4.1835-2.10249a81.80671,81.80671,0,0,0-11.1745-9.294,19.91383,19.91383,0,0,0-13.2685-4.177,8.23506,8.23506,0,0,0-6.466,6.24849,56.98115,56.98115,0,0,0,1.3825,21.16c.37,1.425.298,2.9675.691,4.3835.8555,3.0865,1.779,6.1615,2.8535,9.1775,3.039,8.531,3.8695,17.597,6.435,26.236a113.41578,113.41578,0,0,1,3.166,38.1225,65.402,65.402,0,0,1-3.3745,16.955c-3.027,9.3635-7.5055,18.0435-11.3785,27.0045a84.82311,84.82311,0,0,1-5.0445,8.727c-2.9025,4.9775-5.583,10.1025-8.7845,14.8785a75.47027,75.47027,0,0,1-4.9225,6.93c-1.558,1.838-3.112,3.684-4.7425,5.4545H360.0515a3.84268,3.84268,0,0,0,.728-.58,63.80279,63.80279,0,0,1,10.607-7.286,58.9302,58.9302,0,0,0,12.6555-10.9205,38.26229,38.26229,0,0,1,3.134-3.195c.6935-.6945,1.3835-1.241,2.4965-.75,2.12.935,2.996-.751,2.94652-2.134-.0945-2.663,1.758-4.144,2.8975-6.059a2.38021,2.38021,0,0,1,2.949-1.4495c.747.189,1.9465-.6625,2.6745-1.3325.946-.87.5765-1.904-.1055-2.927a1.81815,1.81815,0,0,1,.1945-1.65,93.24348,93.24348,0,0,0,7.139-9.241,17.71952,17.71952,0,0,0,3.559-7.105c.0805-.85.915-1.622,1.375-2.446.6485-1.161,1.348-2.302,1.8835-3.5145.754-1.7065,1.246-3.537,2.084-5.196a44.07039,44.07039,0,0,0,3.21-10.76,66.49428,66.49428,0,0,1,1.3545-8.333,19.02082,19.02082,0,0,0,1.107-7.1305,136.87168,136.87168,0,0,0-.6485-16.1975c-1.037-7.1855-1.2215-14.4925-1.8185-21.744a23.48307,23.48307,0,0,0-.651-2.259c-.551-2.9-3.3945-5.238-2.1025-8.6065.1025-.267-.1525-.754-.3665-1.0475a18.90691,18.90691,0,0,1-3.3325-8.081,53.45613,53.45613,0,0,0-3.359-13.105,74.50607,74.50607,0,0,1-2.2545-8.908,4.21417,4.21417,0,0,1,.341-1.97,5.02706,5.02706,0,0,0-1.1355-5.23349,7.92008,7.92008,0,0,1-1.6215-4.062,109.88814,109.88814,0,0,1-.9035-11.69651,37.6294,37.6294,0,0,1,2.8545-17.415,5.5856,5.5856,0,0,0,.3175-1.579,15.1408,15.1408,0,0,1,4.3095-8.539,24.66756,24.66756,0,0,1,9.7325-7.73c.5355-.164,1.247-1.36949,1.087-1.799a2.47837,2.47837,0,0,0-1.856-1.20749c-1.035-.07451-2.1005.43249-3.158.454-.849.017-2.09-.03851-2.4715-.56151a2.3047,2.3047,0,0,1,.1005-3.258l.013-.012a41.874,41.874,0,0,0,4.0915-5.01549c3.659-5.13651,7.256-10.30151,11.1325-15.29751a50.80939,50.80939,0,0,1,20.869-15.491,53.55511,53.55511,0,0,1,24.4105-4.96749c2.7955.16649,5.646-.625,8.4455-.479,3.337.174,6.64.934,9.9685,1.353a80.91515,80.91515,0,0,1,19.2685,4.39c3.11,1.20049,6.2955,2.31949,9.4415,3.34449a78.74436,78.74436,0,0,1,10.607,4.45651,2.92247,2.92247,0,0,1,1.891,2.775c.253,4.85.9135,9.71149.7255,14.542-.1825,4.671,2.8325,7.648,4.793,11.205.2305.418,1.373.334,2.0925.48249a4.524,4.524,0,0,0-.364-1.722,13.03069,13.03069,0,0,1-3.234-8.45c.036-.725-.547-1.47249-.8075-2.22249a7.96849,7.96849,0,0,1-.679-2.27351c-.0805-3.391-.1215-6.787-.025-10.177.058-2.046.6085-2.25549,2.425-1.308q11.45325,5.973,22.9185,11.922c3.3555,1.73751,6.74,3.41751,10.1025,5.14151.3545.182.6255.52349.974.72249,5.126,2.92951,10.241,5.879,15.3955,8.757a56.879,56.879,0,0,0,10.074,3.76951,17.30213,17.30213,0,0,0,17.39849-2.891c.41051-.328.957-.789,1.37051-.727.457.06849,1.253.807,1.18349,1.01849a34.00249,34.00249,0,0,1-4.95749,10.80351c-2.13951,2.68849-4.06351,6.15249-8.194,6.57849a1.2551,1.2551,0,0,0-.714.368c-.356.374-.99.94-.894,1.193.206.54151.754,1.25751,1.24849,1.333a49.1306,49.1306,0,0,0,7.537.771,11.6577,11.6577,0,0,0,5.03251-1.11349A28.69251,28.69251,0,0,0,633.90349,322.486a36.23772,36.23772,0,0,0,1.553-5.862,28.45731,28.45731,0,0,0-5.86049-20.79149c-1.50751-2.067-3.28151-3.943-4.972-5.873-3.44651-3.93651-6.72951-8.042-10.434-11.72151-3.921-3.89449-8.17951-7.46449-12.424-11.01649C595.169,261.7,588.63749,256.075,581.74649,250.938c-6.788-5.06049-13.90249-9.701-21.036-14.27249-4.987-3.196-10.22-6.01451-15.394-8.911a90.97675,90.97675,0,0,0-15.2865-7.371c-3.1355-1.05451-6.059-2.725-9.1655-3.885A142.10217,142.10217,0,0,0,507.196,211.859c-4.6775-1.221-9.505-1.895-14.289-2.674a69.87951,69.87951,0,0,0-11.199-1.40749,184.47023,184.47023,0,0,0-24.3405.55749c-4.52.604-9.09.901-13.627,1.635-3.7425.605-7.325,1.917-10.9985,2.44051a89.2668,89.2668,0,0,0-19.267,5.808c-6.4175,2.45649-12.646,5.42-18.891,8.306-2.896,1.33849-5.66052,2.97249-8.43252,4.563-1.2775.734-2.3855,1.759-3.6495,2.52249a53.44859,53.44859,0,0,0-6.6485,3.878c-5.294,4.37251-10.96848,8.305-15.85348,13.16251v-3.431C364.5305,242.97051,369.695,239.46,374.60048,235.68151Zm264.531,96.04449a2.39565,2.39565,0,0,0,1.44.373,1.90133,1.90133,0,0,0,1.005-.628c1.36-1.342,1.697-3.66449,4.008-4.132.21551-.044.31-.686.48551-1.11-.206-.33549-.40851-.944-.60651-.94249-1.14649.008-2.749-.274-3.34449.352a25.15239,25.15239,0,0,0-3.188,4.99849A1.13422,1.13422,0,0,0,639.13149,331.726Zm74.555,214.467a9.709,9.709,0,0,0,1.865-1.566c-.75049-.4575-1.39849-1.0175-1.54-.91a10.75536,10.75536,0,0,0-1.51049,1.666C712.906,545.674,713.46849,546.2965,713.68649,546.193Zm-20.96-14.5855c.50051-.0315.97451-.485,1.763-.935-.66-.554-1.103-1.1625-1.35949-1.092-.49851.1375-.892.656-1.32851,1.017C692.111,530.957,692.44049,531.626,692.72649,531.6075Zm-40.96,20.2485.50551-.7605c-.218-.0845-.463-.271-.64551-.222-.15449.0415-.236.3545-.34949.5475Q651.5215,551.64,651.76649,551.856ZM639.857,543.795c.39649.1135,1.12749-.9455,2.151-1.8825-1.072-.8355-1.873-1.8215-2.256-1.6795-.69351.2575-1.58051,1.1995-1.56151,1.8315C638.20849,542.6955,639.153,543.594,639.857,543.795Zm-42.10451,2.51c.14.06.68-.383.71451-.6405.03-.224-.393-.5095-.66451-.824l-1.036.619A4.05155,4.05155,0,0,0,597.75249,546.305Zm-18.922,1.6935a7.43787,7.43787,0,0,0,2.00551-1.223c-.48-1.687-1.49351-2.1105-2.58051-1.8095a2.27288,2.27288,0,0,0-1.259,1.615c-.1515,1.2145.836,1.6695,1.834,1.4175ZM564.677,550.736l1.2805-.842a4.1595,4.1595,0,0,0-1.029-.8165c-.1425-.055-.672.4065-.702.6695C564.191,550.0535,564.5095,550.4005,564.677,550.736Zm-8.239-6.996c.103.0595.4925-.378,1.1945-.946-1.137-.606-1.9375-1.0465-2.7675-1.422a3.44263,3.44263,0,0,0-.501.8905A14.115,14.115,0,0,0,556.438,543.74Zm-6.6075-5.307c.571.4785,1.192.8975,1.796,1.337l.442-.7985-2.194-1.176C549.8545,538.0145,549.7345,538.3525,549.8305,538.433Zm-29.473-88.949c.561.0415,1.515-.2795,1.675-.68a9.95461,9.95461,0,0,0,.8715-3.833c-.018-.6365-.9825-1.508-1.7095-1.7995a1.96459,1.96459,0,0,0-2.5905,1.0055c-.0195.0445-.0375.09-.0535.1355a5.62907,5.62907,0,0,0-.2955,1.723C518.232,448.138,518.6765,449.358,520.3575,449.484ZM422.624,376.161l-.63,1.393.635,1.24751a9.41638,9.41638,0,0,0,.274-1.52151A4.19807,4.19807,0,0,0,422.624,376.161Zm14.1465-12.72349c-.067.209-.235.572-.187.60349q1.22475.798,2.5105,1.498a6.91023,6.91023,0,0,0,.736-.84849ZM451.047,290.335a1.66325,1.66325,0,0,0-.8745,1.081c-.0365.237.725.88751.9145.81251.4755-.18751.83-.68151,1.5955-1.387C451.819,290.55151,451.3305,290.21,451.047,290.335Zm10.0435,65.779a13.28339,13.28339,0,0,0-2.0165,1.32151c.365.29249.7635.85949,1.089.82049a9.805,9.805,0,0,0,2.2525-.914c-.6695-.637-1.163-1.301-1.325-1.228Zm30.354-74.94c-.27.10851-.41.54051-.607.83.336.098.7205.345.9945.25451.299-.09851.4955-.50851.8705-.93451-.554-.08249-.9665-.26749-1.258-.15049Zm5.945,108.33751c-1.227-.257-1.811.851-1.8975,2.05-.103,1.43149.8775,2.78249,1.9445,2.43149.662-.21749,1.0815-1.17249,1.855-2.086-.763-1.017-1.218-2.25249-1.902-2.39549Zm3.477-78.861c-.0835.217-.268.46149-.2195.64349.041.154.352.23651.5435.35051l.4315-.48951Zm.9985,12.37249c-.177-1.05249-.7705-1.33849-1.6515-.70249a2.87016,2.87016,0,0,0-1.208,3.786,2.9548,2.9548,0,0,0,1.8705,1.084c.249.04649.76-.86051,1.0075-1.399a7.99717,7.99717,0,0,0,.0275-2.119c.0225.40749.041-.13-.046-.64951ZM512.76,455.9045a19.44317,19.44317,0,0,0-.231,2.056c.4455,1.2485.9585,2.9045,1.63,4.494.4755,1.127,1.462,1.1645,2.3235.4935a6.35933,6.35933,0,0,0,0-8.2345c-1.793-1.5835-3.154-1.1575-3.723,1.191Zm3.776-153.417c-.2155-.097-1.3025.92549-1.2205,1.139a3.1204,3.1204,0,0,0,1.384,1.595c.336.16549,1.0205-.376,2.143-.85a12.01812,12.01812,0,0,0-2.3065-1.88451Zm3.433,31.103a2.98415,2.98415,0,0,0-1.4195,3.97349c.015.03151.0305.06251.0465.09351.2.40749.7015.66749,1.1795,1.099a6.20585,6.20585,0,0,0,.782-1.01851c.3635-.824.5915-1.71449,1.0125-2.50449.296-.555,1.772-.78651.5655-1.65251a2.515,2.515,0,0,0-2.1665.00951Zm4.576-37.025c-1.001-.07-1.804.234-1.792,1.548a38.5143,38.5143,0,0,1-.3925,3.83549l1.596,1.589a8.61441,8.61441,0,0,0,1.5755-1.98,11.83141,11.83141,0,0,0,.59-3.104,1.57038,1.57038,0,0,0-1.5775-1.88849ZM546.616,321.998c-.126.182-.25.36351-.3745.54551l.8.404c.0715-.222.2535-.494.183-.65251-.071-.159-.3955-.20249-.609-.297Zm13.544,4.312-1.3175,1.236.7045,1.14951a6.20464,6.20464,0,0,0,.9675-1.34351C560.6165,327.09051,560.292,326.663,560.16,326.31Zm7.015,29.67151c-1.6225.067-2.466.75549-2.352,1.99549a2.50851,2.50851,0,0,0,1.3105,1.72c.8225.356,2.5675-1.311,2.3105-2.214-.181-.635-.92-1.112-1.2685-1.501Zm2.2685,4.109a1.09005,1.09005,0,0,0-1.3475,1.427c.1295.53249.6685.96449,1.2015,1.682.732-.779,1.2365-1.317,1.7415-1.85451-.5275-.43849-1.0035-1.136-1.5955-1.25449ZM582.759,322.371c-.37451.606-.766.999-.68751,1.157a3.16,3.16,0,0,0,1.003,1.13151c.108.07549.55651-.337.849-.525Zm35.737,44.51151a2.06608,2.06608,0,0,0-.71451,1.112c-.035.127.513.413.79451.62649l.925-1.272c-.36351-.17949-.85651-.57-1.005-.46649Zm9.64749-79.66051c.25151-.383.79351-.879.697-1.127a11.866,11.866,0,0,0-1.504-2.14949c-.35249.911-.766,1.47249-.62549,1.71849A8.67779,8.67779,0,0,0,628.14349,287.222Zm-101.947-71.667a8.86888,8.86888,0,0,0,2.141,1.016,4.44813,4.44813,0,0,0,2.445.34351c.3555-.118.475-1.41251.43-2.159-.0725-1.205-1.055-1.37351-2.0435-1.39151-.3995-.007-.7995-.001-1.304-.001a7.90043,7.90043,0,0,0-1.473.233,1.14174,1.14174,0,0,0-.1955,1.959Z" transform="translate(-360 -75)"/><path class="c" d="M839.139,536.161c-.48,3.056-.444,6.197-.97751,9.24-.56,3.193-1.00749,6.393-1.385,9.599h-24.928c-.434-.95-.86749-1.8995-1.27-2.8535a21.552,21.552,0,0,1-3.336-10.645c.076-.769-.769-1.634-1.20149-2.4485-.883-1.6615-2.42751-3.2765-2.53651-4.985a41.5849,41.5849,0,0,0-4.727-11.8835c-1.77849-4.7815-4.845-8.9145-6.65849-13.777-1.65251-4.432-4.08251-8.654-6.047-13.0435a31.63962,31.63962,0,0,0-6.72251-8.9285c-5.079-5.085-9.694-10.54-14.346-15.9975a60.78919,60.78919,0,0,1-6.94749-11.695,41.02059,41.02059,0,0,1-3.16751-10.801A142.42812,142.42812,0,0,0,749.45,431.847a20.09329,20.09329,0,0,0-6.26151-8.321,13.42141,13.42141,0,0,0-6.84349-3.141,25.36751,25.36751,0,0,0-13.51151,1.722,151.135,151.135,0,0,0-19.166,10.2815,47.05993,47.05993,0,0,1-11.412,6.8145,3.92991,3.92991,0,0,0-1.585,1.2295,47.24537,47.24537,0,0,1-10.831,7.6355,138.79116,138.79116,0,0,0-15.438,8.8055,7.0455,7.0455,0,0,1-1.82149.804c-4.078,1.653-8.403,2.9075-12.27151,4.795-4.95949,2.42-10.153,1.0105-15.029,2.4815-.43849.1325-1.036-.2295-1.551-.389-3.981-1.2315-7.964-2.4555-11.933-3.7245-.48449-.155-1.174-.483-1.28249-.8675-.912-3.2395-3.898-4.766-5.76851-7.1965a11.23018,11.23018,0,0,1-1.81-11.365,21.40385,21.40385,0,0,1,4.805-6.92c2.75551-2.7515,5.99-5.021,9.004-7.515,3.52851-2.92,7.03351-5.867,10.56751-8.779.411-.3385,1.006-.456,1.41-.8a35.56384,35.56384,0,0,0,5.39649-4.8225c3.355-4.349,6.581-8.8455,9.90951-13.1745,3.349-4.355,3.88449-10.145,8.095-13.822.089-.07751.098-.24651.14449-.373q2.96627-8.1375,5.93551-16.273a13.82261,13.82261,0,0,0,1.411-3.77251,75.81372,75.81372,0,0,1,5.28-17.746c.783-2.765,3.029-5.084,4.095-7.80749A28.298,28.298,0,0,1,683.72,331.65a24.93567,24.93567,0,0,0,6.416-19.709,6.682,6.682,0,0,0-1.548-4.42849c-3.471-3.544-6.775-7.25051-10.18-10.86051a9.4984,9.4984,0,0,0-1.662-1.142c-5.762-3.91349-12.009-7.071-17.593-11.26-5.072-3.80449-10.306-7.422-15.13-11.52a136.70731,136.70731,0,0,1-15.022-11.466,85.49041,85.49041,0,0,0-9.25451-7.82949c-2.28-1.902-4.51849-3.854-6.82849-5.718-1.776-1.43251-3.63251-2.76351-5.456-4.13651-.86-.647-1.73351-1.276-2.58851-1.92949-1.388-1.061-2.78149-2.116-4.144-3.20951-1.36549-1.096-2.753-2.175-4.03-3.37a82.36264,82.36264,0,0,0-9.063-7.421c-4.065-2.84549-7.57149-6.47449-11.471-9.57349-7.1785-5.706-14.459-11.283-21.7175-16.887a26.15076,26.15076,0,0,1-4.832-3.608,11.85389,11.85389,0,0,0-4.1035-3.14251,19.65585,19.65585,0,0,1-2.762-1.69149c-3.1155-2.35951-6.057-4.97751-9.3165-7.112-3.9265-2.57151-7.523-5.585-11.7245-7.83951a63.56226,63.56226,0,0,0-8.24-4.19649,6.08611,6.08611,0,0,1-2.4435-1.30051,6.21979,6.21979,0,0,0-5.016-2.15549,13.0152,13.0152,0,0,1-3.941-.85351,26.5328,26.5328,0,0,0-12.485-.454,18.97135,18.97135,0,0,0-9.858,4.31951,65.03228,65.03228,0,0,1-9.5365,6.793c-4.258,2.62049-8.6655,5.007-13.082,7.356a23.611,23.611,0,0,1-5.937,2.361,9.31782,9.31782,0,0,0-4.1105,1.413,4.91422,4.91422,0,0,1-2.5995,1.03749,41.2542,41.2542,0,0,0-14.472,4.934c-2.022.87451-4.173.729-3.8575.105a5.86936,5.86936,0,0,1,2.8045-2.387,19.36715,19.36715,0,0,0,8.268-4.868c.45-.56,1.4225-.686,2.1325-1.05349a27.16835,27.16835,0,0,0,8.766-7.03551,49.59906,49.59906,0,0,0,9.1765-16.37049,48.40307,48.40307,0,0,1,2.327-5.1c.5355-1.20151.9245-2.473,1.5185-3.64251a31.50143,31.50143,0,0,0,3.0515-5.60849,12.85438,12.85438,0,0,1,3.9695-4.98451,34.13994,34.13994,0,0,1,6.3965-4.925,20.77284,20.77284,0,0,1,8.0055-3.52949,34.504,34.504,0,0,1,18.1005,3.643A75.21221,75.21221,0,0,1,521.091,155.584q7.99875,7.79326,16.202,15.376c4.3615,4.03151,8.984,7.78751,13.2455,11.91851a24.89723,24.89723,0,0,0,4.588,3.691c1.302.78,1.9375,2.59249,3.13,3.653,3.7325,3.32,7.5195,6.587,11.418,9.709,2.9355,2.35,5.645,4.94249,8.4655,7.38949,4.88,4.23351,9.45649,8.775,14.26549,13.07051,2.92251,2.61,5.82051,5.248,8.75451,7.84549,4.247,3.76051,8.655,7.354,12.718,11.30251,2.03849,1.981,5.538,2.459,6.192,5.89049.033.173.454.25551.67.413,1.50349,1.095,2.993,2.209,4.50149,3.297q2.9325,2.115,5.888,4.19751a22.57822,22.57822,0,0,1,2.298,1.59,49.09988,49.09988,0,0,0,8.06,6.63549,84.40755,84.40755,0,0,0,14.29451,9.44351,52.7378,52.7378,0,0,1,8.645,5.11349,130.759,130.759,0,0,0,21.48349,11.05151c2.13351.78049,4.228,1.687,6.28251,2.65749,5.231,2.47151,10.352,5.19351,15.66249,7.47651a56.50625,56.50625,0,0,1,16.798,9.887,6.81831,6.81831,0,0,1-1.341,11.11949,10.23466,10.23466,0,0,0-3.926,3.33,21.01651,21.01651,0,0,1-4.788,5.438,81.30134,81.30134,0,0,0-11.64249,9.88,67.55653,67.55653,0,0,0-10.05351,13.58251A44.02826,44.02826,0,0,0,689.325,358.108a40.95251,40.95251,0,0,0-1.23851,4.232,34.16146,34.16146,0,0,0-1.991,6.935,36.41341,36.41341,0,0,1-1.65549,8.71551,48.77972,48.77972,0,0,0-1.59151,5.026c-1.531,7.386-2.94849,14.79549-4.434,22.19149a6.4785,6.4785,0,0,0,7.71151,7.4965,26.83408,26.83408,0,0,0,10.511-4.8215c8.853-7.683,18.202-14.801,27.449-22.02149a51.251,51.251,0,0,1,19.223-11.467,2.54886,2.54886,0,0,0,.7-.402,26.05485,26.05485,0,0,1,14.215-3.53151,14.99943,14.99943,0,0,1,13.278,7.054,100.93078,100.93078,0,0,1,7.34449,14.81c1.366,3.051,2.298,6.2965,3.416,9.458.98351,2.783,1.78851,5.643,2.97151,8.339,1.496,3.41,3.12049,6.7905,4.68849,10.152a30.28732,30.28732,0,0,0,7.11,8.7105,7.17373,7.17373,0,0,0,9.405-1.394c1.61451-3.0435,4.37551-5.527,4.514-9.358a10.084,10.084,0,0,1,1.496-3.311,27.01087,27.01087,0,0,0,3.088-10.0045,4.50775,4.50775,0,0,1,.329-1.577,96.58756,96.58756,0,0,0,4.52151-17.98049c.881-3.79951,1.537-7.651,2.316-11.475,1.029-5.05051,4.447-9.214,5.34849-14.32051.063-.357.449-.66149.69751-.98q3.08323-3.945,6.169-7.88749c.24849-.31851.66149-.65451.67049-.99151.072-2.617,2.076-3.95549,3.56451-5.67249.29049-.335.561-.688.848-1.026v188.719C839.673,533.1975,839.37249,534.6745,839.139,536.161ZM621.681,443.4185a3.71208,3.71208,0,0,0-2.082,2.343c-.11251.59,1.18,1.4485,2.24049,2.6295.863-1.326,1.89051-2.23,1.89451-3.1395C623.73749,444.597,622.113,443.2515,621.681,443.4185Zm12.166,10.711a3.07008,3.07008,0,0,0-4.507-1.8,4.37621,4.37621,0,0,0-.733,6.145c.043.055.08749.1085.133.1615a2.90417,2.90417,0,0,0,1.012.6605c1.09749.3135,1.85149,2.241,3.102,1.158a9.4176,9.4176,0,0,0,1.688-3.1875C634.25849,455.967,634.10949,455.0315,633.847,454.1295ZM826.22849,383.865c-.30949.363-.907.758-.87149,1.08351a16.93453,16.93453,0,0,0,.875,2.893c.871-1,1.888-1.77251,1.76049-2.102C827.706,384.998,826.852,384.47651,826.22849,383.865Z" transform="translate(-360 -75)"/><path class="c" d="M804.136,94.49651a6.15943,6.15943,0,0,0,.36249,2.38549,39.50033,39.50033,0,0,1,1.258,10.41451,78.50509,78.50509,0,0,1-2.41749,21.235c-1.62651,7.48149-3.71951,14.88049-5.995,22.19549a94.36826,94.36826,0,0,1-4.833,10.945c-.959,2.09351-1.92151,4.191-3.00651,6.22-2.60349,4.86851-5.07749,9.82351-7.98749,14.505-2.62851,4.229-5.73651,8.16251-8.688,12.18651a103.94006,103.94006,0,0,1-7.34851,9.64649A132.94594,132.94594,0,0,1,734.611,230.323a33.87355,33.87355,0,0,1-8.304,4.04451,35.347,35.347,0,0,1-11.33451,2.76049c-.474-.04049-.97449.403-1.483.55451a10.73851,10.73851,0,0,1-3.428.895c-8.29-.52651-16.70349,1.48849-24.898-1.462-2.991-1.077-6.31-1.204-9.398-2.05751A77.6439,77.6439,0,0,1,654.783,224.722c-7.01551-4.51-13.45951-9.919-20.07251-15.03949-2.451-1.898-4.707-4.054-6.985-6.16551-1.072-.99349-1.93549-2.21-2.98-3.237-2.68249-2.64-5.45349-5.191-8.107-7.85949-1.13449-1.141-1.832-2.85151-3.127-3.67651-5.49349-3.5-8.614-9.24-13.181-13.616-3.982-3.815-7.334-8.28249-11.021-12.411-2.97149-3.32749-6.031-6.57649-9.04449-9.866q-8.7375-9.53624-17.475-19.07249c-1.47-1.59551-3.0845-3.05851-4.558-4.651-5.8775-6.35351-11.683-12.77451-17.597-19.09351-5.9225-6.328-12.0085-12.504-17.897-18.86349-3.76-4.061-7.318-8.311-10.905-12.52851A37.94777,37.94777,0,0,1,509.3265,75H573.966c.7035,1.48,1.382,2.97251,2.0995,4.446a28.92935,28.92935,0,0,0,6.0775,10.30851,46.34227,46.34227,0,0,0,7.466,12.74649,43.31961,43.31961,0,0,0,7.765,10.67051,55.99243,55.99243,0,0,1,7.04649,8.81549,109.43421,109.43421,0,0,0,12.758,14.05751c1.25751,1.23549,2.555,2.43749,3.732,3.747a101.49358,101.49358,0,0,0,14.599,12.827c4.709,3.559,9.857,6.531,14.699,9.92249a41.38057,41.38057,0,0,0,10.63851,5.65351c2.537.842,5.168,1.404,7.761,2.074a12.926,12.926,0,0,1,1.97.42149,17.41453,17.41453,0,0,0,11.899.28151,43.9075,43.9075,0,0,0,13.58149-4.804,34.41825,34.41825,0,0,0,3.85751-2.851,39.66737,39.66737,0,0,0,12.10049-14.791,20.39708,20.39708,0,0,0,2.53751-9.555c-.085-.78651-.17051-1.874.26249-2.364,1.872-2.115.94351-4.286.489-6.512-.34949-1.71051-.414-3.48351-.82049-5.177a40.79843,40.79843,0,0,0-1.94551-6.45851A75.04532,75.04532,0,0,0,702.41,100.546c-5.73451-7.177-11.87851-13.98449-17.747-21.029-1.26451-1.51849-2.554-3.017-3.843-4.517H799.38649a19.61621,19.61621,0,0,1,1.781,4.99351C801.77749,84.92051,804.57649,89.37251,804.136,94.49651ZM601.71,149.168c-.35751.436-.872.82851-1.008,1.325-.07.254.53749.694,1.092,1.34851.444-.78551.893-1.258.922-1.755C602.733,149.80051,602.068,149.47551,601.71,149.168Zm6.66049-1.38849c-.08349.21649-.26749.45949-.219.641.041.15349.351.23449.542.348l.43251-.48751Zm45.22751,48.712a3.11445,3.11445,0,0,0-1.471,1.52949c-.097.22251.937,1.304,1.137,1.22151a12.45872,12.45872,0,0,0,2.37449-1.749c-1.05349-.546-1.70949-1.146-2.04-1.002Zm4.52449,4.5c-.497.869-1.059,1.465-1.11,2.103-.02449.311.903.69849,1.39951,1.051a8.84857,8.84857,0,0,0,.99349-1.944c.05651-.22251-.65549-.63951-1.28249-1.21Zm75.639-48.18151c-.428.20251-.95.563-1.055.96351-.069.264.51551.7,1.10951,1.43.37949-.82151.718-1.23351.702-1.631-.011-.281-.63451-.821-.75651-.76251Zm-.291,40.69551c-.80049.864-1.49449,1.26649-1.56949,1.76249-.17051,1.129.64749,1.71551,1.69149,1.70151.38151-.005,1.11751-.65151,1.068-.84551a16.187,16.187,0,0,0-1.18949-2.619Zm18.652-117.415c-.11249-.05251-.82549.648-.791.94649a1.49877,1.49877,0,0,0,.9,1.00651c.31851.10149.78851-.27351,1.611-.608A10.00971,10.00971,0,0,0,752.123,76.09Zm15.179,1.463c-.13449-.56351-.777-1.00551-1.187-1.503-.36849.45349-1.067.92349-1.04649,1.35849.078,1.63-.95551,2.358-2.03751,3.223a3.03234,3.03234,0,0,1-3.39249.264c-1.08151-.425-1.904.01551-1.91351,1.275-.003.41151.388.833.63,1.23051.029.048.256-.046.38751-.035,1.18049.10049,2.36.21049,3.54.318l-.014.178a6.53361,6.53361,0,0,0,.809-.044,7.10808,7.10808,0,0,0,4.225-6.26551Zm10.634,23.751a18.08891,18.08891,0,0,0-1.326,2c-.04.077.93251.865,1.025.79349a12.3725,12.3725,0,0,0,1.536-1.667c-.557-.508-.89649-.81749-1.235-1.12649Z" transform="translate(-360 -75)"/><path class="c" d="M435.734,542.456a29.89415,29.89415,0,0,0,5.348-12.396c.025-.4695.545-.9115.8305-1.369a69.64667,69.64667,0,0,0,6.252-15.7885,77.42736,77.42736,0,0,1,3.7165-9.342,47.52867,47.52867,0,0,0,2.354-9.7735c.089-.387.3745-.725.504-1.108a43.72572,43.72572,0,0,0,2.3335-7.1985,176.39371,176.39371,0,0,0,2.5535-28.967c-.1165-7.8675.0775-15.7405-.0785-23.607a9.72572,9.72572,0,0,1,2.312-6.283,2.74979,2.74979,0,0,1,3.532-1.0765,20.31294,20.31294,0,0,1,8.834,7.969,14.73578,14.73578,0,0,0,3.2485,3.996,17.60869,17.60869,0,0,1,5.7565,7.164,38.23209,38.23209,0,0,0,4.21,6.899,14.30381,14.30381,0,0,1,2.8435,5.6535,98.49451,98.49451,0,0,1,3.2725,10.2735,68.55029,68.55029,0,0,0,2.173,8.1665c1.063,3.285,1.412,6.7965,2.1835,10.184a18.54418,18.54418,0,0,0,1.385,3.744,25.97343,25.97343,0,0,1,2.777,7.932,45.80619,45.80619,0,0,0,2.175,9.401c1.762,5.052,3.7045,10.0495,5.2655,15.1845a32.986,32.986,0,0,0,4.5275,9.6725,64.05561,64.05561,0,0,1,4.8135,8.314,14.55619,14.55619,0,0,0,1.11,1.6955c2.7315,3.843,5.458,7.6895,8.2185,11.5115A8.56181,8.56181,0,0,0,529.7825,555h-46.808c.0695-.4205.1675-.838.207-1.2615.222-2.3865-.3665-4.876,1.3825-6.9985a3.18216,3.18216,0,0,0,.272-1.969c-.5485-10.499,1.3015-21.0885-1.539-31.5205a31.89866,31.89866,0,0,0-4.2365-11.655c-.6925-.9115-1.7065-2.037-2.6985-2.178-3.078-.436-6.264-.7195-8.4225,2.437-.986,1.4415-2.335,2.6435-3.26,4.117-2.434,3.8765-4.821,7.789-7.0385,11.792-1.357,2.4505-2.262,5.147-3.5525,7.6385-2.959,5.712-6.02,11.3715-9.058,17.0415-2.083,3.8875-4.125,7.799-6.318,11.6235-.181.315-.3815.62-.566.933H430.843c1.03-2.278,1.9975-4.5875,2.8415-6.9595A39.82653,39.82653,0,0,1,435.734,542.456Zm63.1655,4.309c.6855-1.1935,1.3105-1.8015,1.3035-2.403-.007-.614-.634-1.221-.9895-1.831-.548.4785-1.5115.93-1.544,1.441-.0455.7145.603,1.4735,1.23,2.793Zm-6.097-19.7675a4.27254,4.27254,0,0,0,2.289,1.2035c1.2465.009,3.449-2.7865,3.5165-4.37-.338-.2425-.778-.7765-1.3095-.8935a7.45843,7.45843,0,0,0-4.712,2.6365A1.588,1.588,0,0,0,492.8025,526.9975Zm-6.574-35.1035c2.112.067,4.3015-1.304,3.8045-2.057a5.19809,5.19809,0,0,0-2.753-1.898c-1.056-.304-2.532,1.4765-2.268,2.709C485.1345,491.2205,485.9655,491.6415,486.2285,491.894Z" transform="translate(-360 -75)"/><path class="c" d="M405.815,84.025c.0105,7.181.0395,14.36251-.01,21.54351a17.27568,17.27568,0,0,1-.5495,3.976c-.8,3.249-1.7865,6.45349-2.5625,9.708a66.23632,66.23632,0,0,1-5.201,14.206A162.76585,162.76585,0,0,1,382.899,157.55a84.69433,84.69433,0,0,1-6.3265,8.78,40.8628,40.8628,0,0,0-5.6645,7.699,78.13378,78.13378,0,0,1-4.51748,6.68551c-2.0685,2.79149-4.2895,5.47-6.3905,8.238V168.769c.2865-.10249.52-.216.5505-.37a15.906,15.906,0,0,0,.237-4.67949c-.026-.245-.3745-.456-.7875-.66051V75h44.1905a13.93418,13.93418,0,0,0,1.492,6.615A5.513,5.513,0,0,1,405.815,84.025Zm-36.1475,28.59a11.22924,11.22924,0,0,0-.28,1.38851c-.0065.07549.37.18549.5695.27949l.604-1.28149Zm4.0125-12.262c-.887-.38349-2.639,1.33351-2.71552,2.465a1.81327,1.81327,0,0,0,2.064,1.93c.967-.10449,1.8395-1.07849,3.1925-1.96C375.101,101.67,374.51848,100.71551,373.68,100.353Zm8.464,5.827c-.4835.529-1.3525,1.05651-1.355,1.58751-.003.721.658,1.44449,1.034,2.167l1.027.481c.261-.59351.84748-1.279.71248-1.762A10.90845,10.90845,0,0,0,382.144,106.18Z" transform="translate(-360 -75)"/></svg>