<svg width="24" height="24" viewBox="0 0 24 24" fill="none" xmlns="http://www.w3.org/2000/svg">
<path fill-rule="evenodd" clip-rule="evenodd" d="M9 2.25L8.96644 2.25L8.96643 2.25C7.59471 2.25 6.51928 2.24999 5.65493 2.32061C4.77479 2.39252 4.04768 2.54138 3.38955 2.87671C2.30762 3.42799 1.42798 4.30762 0.876711 5.38956C0.541377 6.04769 0.392521 6.7748 0.32061 7.65494C0.24999 8.51929 0.249994 9.59472 0.249998 10.9664L0.249998 11L0.249998 13L0.249998 13.0336L0.249998 13.0336C0.249994 14.4053 0.24999 15.4807 0.32061 16.3451C0.392521 17.2252 0.541377 17.9523 0.876711 18.6104C1.42798 19.6924 2.30762 20.572 3.38955 21.1233C4.04768 21.4586 4.77479 21.6075 5.65493 21.6794C6.51927 21.75 7.59468 21.75 8.96637 21.75L8.96642 21.75L9 21.75L11 21.75L11.0336 21.75L11.0336 21.75C12.4053 21.75 13.4807 21.75 14.3451 21.6794C15.2252 21.6075 15.9523 21.4586 16.6104 21.1233C17.6924 20.572 18.572 19.6924 19.1233 18.6104C19.4464 17.9762 19.5964 17.278 19.6712 16.4404C19.8656 16.585 20.0352 16.7084 20.183 16.8078C20.4007 16.9543 20.6352 17.0941 20.8902 17.1659C22.0071 17.4804 23.18 16.8939 23.5985 15.8117C23.6941 15.5647 23.7229 15.2932 23.7364 15.0312C23.75 14.7659 23.75 14.4299 23.75 14.0208L23.75 14.0208L23.75 14.0001L23.75 10.0001L23.75 9.97938L23.75 9.97932C23.75 9.57027 23.75 9.23431 23.7364 8.969C23.7229 8.70696 23.6941 8.43545 23.5985 8.18841C23.1799 7.10622 22.0071 6.51979 20.8902 6.83427C20.6352 6.90606 20.4007 7.04586 20.183 7.19233C20.0352 7.29178 19.8656 7.4152 19.6713 7.55973C19.5964 6.72212 19.4465 6.02381 19.1233 5.38956C18.572 4.30762 17.6924 3.42799 16.6104 2.87671C15.9523 2.54138 15.2252 2.39252 14.3451 2.32061C13.4807 2.24999 12.4053 2.25 11.0336 2.25L11 2.25L9 2.25ZM18.25 11L18.25 11.0086L18.25 11.0172L18.25 11.0258L18.25 11.0344L18.25 11.043L18.25 11.0516L18.25 11.0602L18.25 11.0688L18.25 11.0774L18.25 11.086L18.25 11.0946L18.25 11.1032L18.25 11.1118L18.25 11.1204L18.25 11.129L18.25 11.1376L18.25 11.1462L18.25 11.1548L18.25 11.1634L18.25 11.172L18.25 11.1806L18.25 11.1891L18.25 11.1977L18.25 11.2063L18.25 11.2149L18.25 11.2234L18.25 11.232L18.25 11.2406L18.25 11.2492L18.25 11.2577L18.25 11.2663L18.25 11.2748L18.25 11.2834L18.25 11.292L18.25 11.3005L18.25 11.3091L18.25 11.3176L18.25 11.3262L18.25 11.3347L18.25 11.3433L18.25 11.3518L18.25 11.3603L18.25 11.3689L18.25 11.3774L18.25 11.3859L18.25 11.3945L18.25 11.403L18.25 11.4115L18.25 11.42L18.25 11.4285L18.25 11.4371L18.25 11.4456L18.25 11.4541L18.25 11.4626L18.25 11.4711L18.25 11.4796L18.25 11.4881L18.25 11.4966L18.25 11.5051L18.25 11.5136L18.25 11.522L18.25 11.5305L18.25 11.539L18.25 11.5475L18.25 11.5559L18.25 11.5644L18.25 11.5729L18.25 11.5813L18.25 11.5898L18.25 11.5983L18.25 11.6067L18.25 11.6152L18.25 11.6236L18.25 11.6321L18.25 11.6405L18.25 11.6489L18.25 11.6574L18.25 11.6658L18.25 11.6742L18.25 11.6826L18.25 11.691L18.25 11.6995L18.25 11.7079L18.25 11.7163L18.25 11.7247L18.25 11.7331L18.25 11.7415L18.25 11.7499L18.25 11.7583L18.25 11.7666L18.25 11.775L18.25 11.7834L18.25 11.7918L18.25 11.8001L18.25 11.8085L18.25 11.8169L18.25 11.8252L18.25 11.8336L18.25 11.8419L18.25 11.8502L18.25 11.8586L18.25 11.8669L18.25 11.8752L18.25 11.8836L18.25 11.8919L18.25 11.9002L18.25 11.9085L18.25 11.9168L18.25 11.9251L18.25 11.9334L18.25 11.9417L18.25 11.95L18.25 11.9583L18.25 11.9666L18.25 11.9748L18.25 11.9831L18.25 11.9914L18.25 11.9996L18.25 12.0079L18.25 12.0162L18.25 12.0244L18.25 12.0326L18.25 12.0409L18.25 12.0491L18.25 12.0573L18.25 12.0656L18.25 12.0738L18.25 12.082L18.25 12.0902L18.25 12.0984L18.25 12.1066L18.25 12.1148L18.25 12.123L18.25 12.1311L18.25 12.1393L18.25 12.1475L18.25 12.1556L18.25 12.1638L18.25 12.172L18.25 12.1801L18.25 12.1883L18.25 12.1964L18.25 12.2045L18.25 12.2126L18.25 12.2208L18.25 12.2289L18.25 12.237L18.25 12.2451L18.25 12.2532L18.25 12.2613L18.25 12.2694L18.25 12.2774L18.25 12.2855L18.25 12.2936L18.25 12.3017L18.25 12.3097L18.25 12.3178L18.25 12.3258L18.25 12.3338L18.25 12.3419L18.25 12.3499L18.25 12.3579L18.25 12.3659L18.25 12.3739L18.25 12.3819L18.25 12.3899L18.25 12.3979L18.25 12.4059L18.25 12.4139L18.25 12.4219L18.25 12.4298L18.25 12.4378L18.25 12.4457L18.25 12.4537L18.25 12.4616L18.25 12.4695L18.25 12.4775L18.25 12.4854L18.25 12.4933L18.25 12.5012L18.25 12.5091L18.25 12.517L18.25 12.5249L18.25 12.5328L18.25 12.5406L18.25 12.5485L18.25 12.5564L18.25 12.5642L18.25 12.5721L18.25 12.5799L18.25 12.5877L18.25 12.5955L18.25 12.6034L18.25 12.6112L18.25 12.619L18.25 12.6268L18.25 12.6345L18.25 12.6423L18.25 12.6501L18.25 12.6579L18.25 12.6656L18.25 12.6734L18.25 12.6811L18.25 12.6889L18.25 12.6966L18.25 12.7043L18.25 12.712L18.25 12.7197L18.25 12.7274L18.25 12.7351L18.25 12.7428L18.25 12.7505L18.25 12.7581L18.25 12.7658L18.25 12.7735L18.25 12.7811L18.25 12.7887L18.25 12.7964L18.25 12.804L18.25 12.8116L18.25 12.8192L18.25 12.8268L18.25 12.8344L18.25 12.842L18.25 12.8496L18.25 12.8571L18.25 12.8647L18.25 12.8722L18.25 12.8798L18.25 12.8873L18.25 12.8948L18.25 12.9024L18.25 12.9099L18.25 12.9174L18.25 12.9249L18.25 12.9323L18.25 12.9398L18.25 12.9473L18.25 12.9547L18.25 12.9622L18.25 12.9696L18.25 12.9771L18.25 12.9845L18.25 12.9919L18.25 12.9993L18.25 13C18.25 14.4125 18.2494 15.4268 18.1844 16.2229C18.12 17.0103 17.9964 17.518 17.7868 17.9295C17.3793 18.7291 16.7291 19.3793 15.9295 19.7868C15.518 19.9964 15.0103 20.12 14.2229 20.1844C13.4268 20.2494 12.4125 20.25 11 20.25L9 20.25C7.58749 20.25 6.57322 20.2494 5.77708 20.1844C4.9897 20.12 4.48197 19.9964 4.07054 19.7868C3.27085 19.3793 2.62068 18.7292 2.21322 17.9295C2.00359 17.518 1.87996 17.0103 1.81563 16.2229C1.75058 15.4268 1.75 14.4125 1.75 13L1.75 11C1.75 9.58749 1.75058 8.57322 1.81563 7.77709C1.87996 6.98971 2.00359 6.48197 2.21322 6.07054C2.62068 5.27085 3.27085 4.62069 4.07054 4.21322C4.48197 4.00359 4.9897 3.87996 5.77708 3.81563C6.57322 3.75059 7.58749 3.75 9 3.75L11 3.75C12.4125 3.75 13.4268 3.75059 14.2229 3.81563C15.0103 3.87996 15.518 4.00359 15.9295 4.21322C16.7291 4.62069 17.3793 5.27085 17.7868 6.07054C17.9964 6.48197 18.12 6.98971 18.1844 7.77709C18.2494 8.57322 18.25 9.58749 18.25 11ZM19.75 13.0336L19.75 13.0362L19.75 13.0436L19.75 13.0509L19.75 13.0583L19.75 13.0656L19.75 13.0729L19.75 13.0802L19.75 13.0875L19.75 13.0948L19.75 13.1021L19.75 13.1094L19.75 13.1166L19.75 13.1239L19.75 13.1312L19.75 13.1384L19.75 13.1456L19.75 13.1528L19.75 13.16L19.75 13.1672L19.75 13.1744L19.75 13.1816L19.75 13.1888L19.75 13.196L19.75 13.2031L19.75 13.2103L19.75 13.2174L19.75 13.2245L19.75 13.2316L19.75 13.2387L19.75 13.2458L19.75 13.2529L19.75 13.26L19.75 13.2671L19.75 13.2741L19.75 13.2812L19.75 13.2882L19.75 13.2952L19.75 13.3023L19.75 13.3093L19.75 13.3163L19.75 13.3233L19.75 13.3302L19.75 13.3372L19.75 13.3442L19.75 13.3511L19.75 13.358L19.75 13.365L19.75 13.3719L19.75 13.3788L19.75 13.3857L19.75 13.3926L19.75 13.3995L19.75 13.4063L19.75 13.4132L19.75 13.42L19.75 13.4269L19.75 13.4337L19.75 13.4405L19.75 13.4473L19.75 13.4541L19.75 13.4609L19.75 13.4677L19.75 13.4744L19.75 13.4812L19.75 13.4879L19.75 13.4946L19.75 13.5013L19.75 13.5081L19.75 13.5148L19.75 13.5214L19.75 13.5281L19.75 13.5348L19.75 13.5414L19.75 13.5481L19.75 13.5547L19.75 13.5613L19.75 13.5679L19.75 13.5745L19.75 13.5811L19.75 13.5877L19.75 13.5943L19.75 13.6008L19.75 13.6074L19.75 13.6139L19.75 13.6204L19.75 13.6269L19.75 13.6334L19.75 13.6399L19.75 13.6464L19.75 13.6528L19.75 13.6593L19.75 13.6657L19.75 13.6721L19.75 13.6786L19.75 13.685L19.75 13.6914L19.75 13.6977L19.75 13.7041L19.75 13.7105L19.75 13.7168L19.75 13.7231L19.75 13.7295L19.75 13.7358L19.75 13.7421L19.75 13.7484L19.75 13.7546L19.75 13.7609L19.75 13.7672L19.75 13.7734L19.75 13.7796L19.75 13.7858L19.75 13.792L19.75 13.7982L19.75 13.8044L19.75 13.8106L19.75 13.8167L19.75 13.8229L19.75 13.829L19.75 13.8351L19.75 13.8412L19.75 13.8473L19.75 13.8534L19.75 13.8595L19.75 13.8655L19.75 13.8716L19.75 13.8776L19.75 13.8836L19.75 13.8896L19.75 13.8956L19.75 13.9016L19.75 13.9075L19.75 13.9135L19.75 13.9194L19.75 13.9254L19.75 13.9313L19.75 13.9372L19.75 13.9431L19.75 13.9489L19.75 13.9548L19.75 13.9607L19.75 13.9665L19.75 13.9723L19.75 13.9781L19.75 13.9839L19.75 13.9897L19.75 13.9955L19.75 14.0012C19.75 14.2682 19.7521 14.3216 19.7589 14.3655C19.7829 14.5195 19.8542 14.6621 19.963 14.7737C19.994 14.8055 20.0357 14.8394 20.25 15.0001C20.5979 15.261 20.8358 15.4391 21.0203 15.5633C21.2113 15.6918 21.2822 15.7179 21.2967 15.722C21.669 15.8268 22.06 15.6314 22.1995 15.2706C22.2049 15.2566 22.2266 15.1842 22.2384 14.9543C22.2498 14.7321 22.25 14.435 22.25 14.0001L22.25 10.0001C22.25 9.5652 22.2498 9.26805 22.2384 9.04588C22.2266 8.81597 22.2049 8.74359 22.1995 8.72951C22.06 8.36878 21.669 8.1733 21.2967 8.27813C21.2822 8.28222 21.2113 8.30836 21.0203 8.43687C20.8357 8.56105 20.5979 8.73915 20.25 9.00009C20.0357 9.16082 19.994 9.1947 19.963 9.22651C19.8542 9.33805 19.7829 9.4807 19.7589 9.63463C19.7521 9.67852 19.75 9.73219 19.75 10L19.75 10.0086L19.75 10.0172L19.75 10.0257L19.75 10.0343L19.75 10.0429L19.75 10.0514L19.75 10.06L19.75 10.0686L19.75 10.0771L19.75 10.0857L19.75 10.0943L19.75 10.1029L19.75 10.1115L19.75 10.12L19.75 10.1286L19.75 10.1372L19.75 10.1458L19.75 10.1544L19.75 10.163L19.75 10.1716L19.75 10.1802L19.75 10.1888L19.75 10.1974L19.75 10.206L19.75 10.2146L19.75 10.2232L19.75 10.2318L19.75 10.2404L19.75 10.249L19.75 10.2576L19.75 10.2662L19.75 10.2748L19.75 10.2835L19.75 10.2921L19.75 10.3007L19.75 10.3093L19.75 10.3179L19.75 10.3265L19.75 10.3352L19.75 10.3438L19.75 10.3524L19.75 10.361L19.75 10.3697L19.75 10.3783L19.75 10.3869L19.75 10.3955L19.75 10.4042L19.75 10.4128L19.75 10.4214L19.75 10.4301L19.75 10.4387L19.75 10.4473L19.75 10.456L19.75 10.4646L19.75 10.4732L19.75 10.4819L19.75 10.4905L19.75 10.4991L19.75 10.5078L19.75 10.5164L19.75 10.5251L19.75 10.5337L19.75 10.5423L19.75 10.551L19.75 10.5596L19.75 10.5682L19.75 10.5769L19.75 10.5855L19.75 10.5942L19.75 10.6028L19.75 10.6115L19.75 10.6201L19.75 10.6287L19.75 10.6374L19.75 10.646L19.75 10.6547L19.75 10.6633L19.75 10.6719L19.75 10.6806L19.75 10.6892L19.75 10.6979L19.75 10.7065L19.75 10.7151L19.75 10.7238L19.75 10.7324L19.75 10.7411L19.75 10.7497L19.75 10.7583L19.75 10.767L19.75 10.7756L19.75 10.7843L19.75 10.7929L19.75 10.8015L19.75 10.8102L19.75 10.8188L19.75 10.8274L19.75 10.8361L19.75 10.8447L19.75 10.8533L19.75 10.862L19.75 10.8706L19.75 10.8792L19.75 10.8879L19.75 10.8965L19.75 10.9051L19.75 10.9137L19.75 10.9141M19.75 13.0336L19.75 13.0336L19.75 13.0289L19.75 13.0215L19.75 13.0141L19.75 13.0067L19.75 13L19.75 12.9993L19.75 12.9919L19.75 12.9845L19.75 12.9771L19.75 12.9696L19.75 12.9622L19.75 12.9547L19.75 12.9473L19.75 12.9398L19.75 12.9323L19.75 12.9249L19.75 12.9174L19.75 12.9099L19.75 12.9024L19.75 12.8948L19.75 12.8873L19.75 12.8798L19.75 12.8722L19.75 12.8647L19.75 12.8571L19.75 12.8496L19.75 12.842L19.75 12.8344L19.75 12.8268L19.75 12.8192L19.75 12.8116L19.75 12.804L19.75 12.7964L19.75 12.7887L19.75 12.7811L19.75 12.7735L19.75 12.7658L19.75 12.7581L19.75 12.7505L19.75 12.7428L19.75 12.7351L19.75 12.7274L19.75 12.7197L19.75 12.712L19.75 12.7043L19.75 12.6966L19.75 12.6889L19.75 12.6811L19.75 12.6734L19.75 12.6656L19.75 12.6579L19.75 12.6501L19.75 12.6423L19.75 12.6345L19.75 12.6268L19.75 12.619L19.75 12.6112L19.75 12.6034L19.75 12.5955L19.75 12.5877L19.75 12.5799L19.75 12.5721L19.75 12.5642L19.75 12.5564L19.75 12.5485L19.75 12.5406L19.75 12.5328L19.75 12.5249L19.75 12.517L19.75 12.5091L19.75 12.5012L19.75 12.4933L19.75 12.4854L19.75 12.4775L19.75 12.4695L19.75 12.4616L19.75 12.4537L19.75 12.4457L19.75 12.4378L19.75 12.4298L19.75 12.4219L19.75 12.4139L19.75 12.4059L19.75 12.3979L19.75 12.3899L19.75 12.3819L19.75 12.3739L19.75 12.3659L19.75 12.3579L19.75 12.3499L19.75 12.3419L19.75 12.3338L19.75 12.3258L19.75 12.3178L19.75 12.3097L19.75 12.3017L19.75 12.2936L19.75 12.2855L19.75 12.2774L19.75 12.2694L19.75 12.2613L19.75 12.2532L19.75 12.2451L19.75 12.237L19.75 12.2289L19.75 12.2208L19.75 12.2126L19.75 12.2045L19.75 12.1964L19.75 12.1883L19.75 12.1801L19.75 12.172L19.75 12.1638L19.75 12.1556L19.75 12.1475L19.75 12.1393L19.75 12.1311L19.75 12.123L19.75 12.1148L19.75 12.1066L19.75 12.0984L19.75 12.0902L19.75 12.082L19.75 12.0738L19.75 12.0656L19.75 12.0573L19.75 12.0491L19.75 12.0409L19.75 12.0326L19.75 12.0244L19.75 12.0162L19.75 12.0079L19.75 11.9996L19.75 11.9914L19.75 11.9831L19.75 11.9748L19.75 11.9666L19.75 11.9583L19.75 11.95L19.75 11.9417L19.75 11.9334L19.75 11.9251L19.75 11.9168L19.75 11.9085L19.75 11.9002L19.75 11.8919L19.75 11.8836L19.75 11.8752L19.75 11.8669L19.75 11.8586L19.75 11.8502L19.75 11.8419L19.75 11.8336L19.75 11.8252L19.75 11.8169L19.75 11.8085L19.75 11.8001L19.75 11.7918L19.75 11.7834L19.75 11.775L19.75 11.7666L19.75 11.7583L19.75 11.7499L19.75 11.7415L19.75 11.7331L19.75 11.7247L19.75 11.7163L19.75 11.7079L19.75 11.6995L19.75 11.6911L19.75 11.6826L19.75 11.6742L19.75 11.6658L19.75 11.6574L19.75 11.6489L19.75 11.6405L19.75 11.6321L19.75 11.6236L19.75 11.6152L19.75 11.6067L19.75 11.5983L19.75 11.5898L19.75 11.5813L19.75 11.5729L19.75 11.5644L19.75 11.5559L19.75 11.5475L19.75 11.539L19.75 11.5305L19.75 11.522L19.75 11.5136L19.75 11.5051L19.75 11.4966L19.75 11.4881L19.75 11.4796L19.75 11.4711L19.75 11.4626L19.75 11.4541L19.75 11.4456L19.75 11.4371L19.75 11.4285L19.75 11.42L19.75 11.4115L19.75 11.403L19.75 11.3945L19.75 11.3859L19.75 11.3774L19.75 11.3689L19.75 11.3603L19.75 11.3518L19.75 11.3433L19.75 11.3347L19.75 11.3262L19.75 11.3176L19.75 11.3091L19.75 11.3005L19.75 11.292L19.75 11.2834L19.75 11.2748L19.75 11.2663L19.75 11.2577L19.75 11.2492L19.75 11.2406L19.75 11.232L19.75 11.2234L19.75 11.2149L19.75 11.2063L19.75 11.1977L19.75 11.1891L19.75 11.1806L19.75 11.172L19.75 11.1634L19.75 11.1548L19.75 11.1462L19.75 11.1376L19.75 11.129L19.75 11.1204L19.75 11.1118L19.75 11.1032L19.75 11.0946L19.75 11.086L19.75 11.0774L19.75 11.0688L19.75 11.0602L19.75 11.0516L19.75 11.043L19.75 11.0344L19.75 11.0258L19.75 11.0172L19.75 11.0086L19.75 11L19.75 11L19.75 10.9913L19.75 10.9827L19.75 10.9741L19.75 10.9664L19.75 10.9664" fill="#9aa1b2"/>
</svg>
